Blinker-Light.ufo
<glyph name="exclam" format="1">
  <advance width="214"/>
  <unicode hex="0021"/>
  <outline>
    <contour>
      <point x="142" y="627" type="line"/>
      <point x="71" y="627" type="line"/>
      <point x="80" y="163" type="line"/>
      <point x="133" y="163" type="line"/>
    </contour>
    <contour>
      <point x="140" y="0" type="line"/>
      <point x="140" y="66" type="line"/>
      <point x="74" y="66" type="line"/>
      <point x="74" y="0" type="line"/>
    </contour>
  </outline>
</glyph>
<glyph name="quotedbl" format="1">
  <advance width="311"/>
  <unicode hex="0022"/>
  <outline>
    <contour>
      <point x="105" y="627" type="line"/>
      <point x="59" y="627" type="line"/>
      <point x="59" y="399" type="line"/>
      <point x="105" y="399" type="line"/>
    </contour>
    <contour>
      <point x="252" y="627" type="line"/>
      <point x="206" y="627" type="line"/>
      <point x="206" y="399" type="line"/>
      <point x="252" y="399" type="line"/>
    </contour>
  </outline>
</glyph>
<glyph name="dollar" format="1">
  <advance width="489"/>
  <unicode hex="0024"/>
  <outline>
    <contour>
      <point x="259" y="624" type="line"/>
      <point x="259" y="726" type="line"/>
      <point x="226" y="726" type="line"/>
      <point x="226" y="624" type="line"/>
    </contour>
    <contour>
      <point x="259" y="-99" type="line"/>
      <point x="259" y="4" type="line"/>
      <point x="226" y="4" type="line"/>
      <point x="226" y="-99" type="line"/>
    </contour>
    <contour>
      <point x="162" y="325" type="curve" smooth="yes"/>
      <point x="307" y="285" type="line" smooth="yes"/>
      <point x="386" y="263"/>
      <point x="408" y="242"/>
      <point x="408" y="172" type="curve"/>
      <point x="408" y="78"/>
      <point x="376" y="29"/>
      <point x="247" y="29" type="curve"/>
      <point x="153" y="29"/>
      <point x="86" y="49"/>
      <point x="49" y="59" type="curve"/>
      <point x="49" y="24" type="line"/>
      <point x="81" y="12"/>
      <point x="153" y="-7"/>
      <point x="247" y="-7" type="curve"/>
      <point x="405" y="-7"/>
      <point x="447" y="64"/>
      <point x="447" y="171" type="curve"/>
      <point x="447" y="267"/>
      <point x="411" y="293"/>
      <point x="321" y="319" type="curve" smooth="yes"/>
      <point x="177" y="360" type="line" smooth="yes"/>
      <point x="108" y="380"/>
      <point x="88" y="408"/>
      <point x="88" y="463" type="curve"/>
      <point x="88" y="566"/>
      <point x="143" y="602"/>
      <point x="255" y="602" type="curve" smooth="yes"/>
      <point x="319" y="602"/>
      <point x="370" y="592"/>
      <point x="402" y="584" type="curve"/>
      <point x="402" y="619" type="line"/>
      <point x="370" y="628"/>
      <point x="324" y="637"/>
      <point x="255" y="637" type="curve" smooth="yes"/>
      <point x="119" y="637"/>
      <point x="51" y="586"/>
      <point x="51" y="461" type="curve"/>
      <point x="51" y="382"/>
      <point x="87" y="346"/>
    </contour>
  </outline>
</glyph>
<glyph name="percent" format="1">
  <advance width="636"/>
  <unicode hex="0025"/>
  <outline>
    <contour>
      <point x="158" y="604" type="curve"/>
      <point x="222" y="604"/>
      <point x="245" y="571"/>
      <point x="245" y="475" type="curve"/>
      <point x="245" y="381"/>
      <point x="222" y="348"/>
      <point x="158" y="348" type="curve"/>
      <point x="95" y="348"/>
      <point x="72" y="381"/>
      <point x="72" y="475" type="curve"/>
      <point x="72" y="571"/>
      <point x="95" y="604"/>
    </contour>
    <contour>
      <point x="158" y="320" type="curve"/>
      <point x="244" y="320"/>
      <point x="276" y="362"/>
      <point x="276" y="475" type="curve"/>
      <point x="276" y="590"/>
      <point x="244" y="631"/>
      <point x="158" y="631" type="curve"/>
      <point x="73" y="631"/>
      <point x="41" y="590"/>
      <point x="41" y="475" type="curve"/>
      <point x="41" y="362"/>
      <point x="73" y="320"/>
    </contour>
    <contour>
      <point x="477" y="281" type="curve"/>
      <point x="541" y="281"/>
      <point x="564" y="247"/>
      <point x="564" y="152" type="curve"/>
      <point x="564" y="58"/>
      <point x="541" y="24"/>
      <point x="477" y="24" type="curve"/>
      <point x="413" y="24"/>
      <point x="390" y="58"/>
      <point x="390" y="152" type="curve"/>
      <point x="390" y="247"/>
      <point x="413" y="281"/>
    </contour>
    <contour>
      <point x="477" y="-3" type="curve"/>
      <point x="563" y="-3"/>
      <point x="594" y="38"/>
      <point x="594" y="152" type="curve"/>
      <point x="594" y="266"/>
      <point x="563" y="308"/>
      <point x="477" y="308" type="curve"/>
      <point x="391" y="308"/>
      <point x="360" y="266"/>
      <point x="360" y="152" type="curve"/>
      <point x="360" y="38"/>
      <point x="391" y="-3"/>
    </contour>
    <component base="fraction" xOffset="250"/>
  </outline>
</glyph>
<glyph name="parenleft" format="1">
  <advance width="217"/>
  <unicode hex="0028"/>
  <outline>
    <contour>
      <point x="106" y="313" type="curve"/>
      <point x="106" y="438"/>
      <point x="125" y="585"/>
      <point x="181" y="693" type="curve"/>
      <point x="139" y="707" type="line"/>
      <point x="74" y="594"/>
      <point x="50" y="450"/>
      <point x="50" y="313" type="curve"/>
      <point x="50" y="176"/>
      <point x="76" y="33"/>
      <point x="139" y="-80" type="curve"/>
      <point x="182" y="-66" type="line"/>
      <point x="126" y="42"/>
      <point x="106" y="189"/>
    </contour>
  </outline>
</glyph>
<glyph name="asterisk" format="1">
  <advance width="387"/>
  <unicode hex="002A"/>
  <outline>
    <contour>
      <point x="188" y="446" type="line"/>
      <point x="201" y="482" type="line"/>
      <point x="48" y="541" type="line"/>
      <point x="31" y="494" type="line"/>
    </contour>
    <contour>
      <point x="209" y="452" type="line"/>
      <point x="178" y="476" type="line"/>
      <point x="76" y="348" type="line"/>
      <point x="116" y="319" type="line"/>
    </contour>
    <contour>
      <point x="209" y="476" type="line"/>
      <point x="178" y="453" type="line"/>
      <point x="268" y="317" type="line"/>
      <point x="308" y="346" type="line"/>
    </contour>
    <contour>
      <point x="186" y="483" type="line"/>
      <point x="198" y="447" type="line"/>
      <point x="356" y="491" type="line"/>
      <point x="341" y="538" type="line"/>
    </contour>
    <contour>
      <point x="174" y="464" type="line"/>
      <point x="213" y="464" type="line"/>
      <point x="218" y="627" type="line"/>
      <point x="169" y="627" type="line"/>
    </contour>
  </outline>
</glyph>
<glyph name="plus" format="1">
  <advance width="500"/>
  <unicode hex="002B"/>
  <outline>
    <contour>
      <point x="463" y="292" type="line"/>
      <point x="463" y="352" type="line"/>
      <point x="37" y="352" type="line"/>
      <point x="37" y="292" type="line"/>
    </contour>
    <contour>
      <point x="281" y="532" type="line"/>
      <point x="221" y="532" type="line"/>
      <point x="221" y="110" type="line"/>
      <point x="281" y="110" type="line"/>
    </contour>
  </outline>
</glyph>
<glyph name="comma" format="1">
  <advance width="162"/>
  <unicode hex="002C"/>
  <outline>
    <contour>
      <point x="93" y="-77" type="curve" smooth="yes"/>
      <point x="116" y="71" type="line"/>
      <point x="52" y="71" type="line"/>
      <point x="46" y="-103" type="line"/>
      <point x="64" y="-103" type="line" smooth="yes"/>
      <point x="81" y="-103"/>
      <point x="90" y="-94"/>
    </contour>
  </outline>
</glyph>
<glyph name="hyphen" format="1">
  <advance width="434"/>
  <unicode hex="002D"/>
  <outline>
    <contour>
      <point x="377" y="293" type="line"/>
      <point x="377" y="343" type="line"/>
      <point x="58" y="343" type="line"/>
      <point x="58" y="293" type="line"/>
    </contour>
  </outline>
</glyph>
<glyph name="period" format="1">
  <advance width="160"/>
  <unicode hex="002E"/>
  <outline>
    <contour>
      <point x="48" y="0" type="line"/>
      <point x="112" y="0" type="line"/>
      <point x="112" y="67" type="line"/>
      <point x="48" y="67" type="line"/>
    </contour>
  </outline>
</glyph>
<glyph name="slash" format="1">
  <advance width="296"/>
  <unicode hex="002F"/>
  <outline>
    <contour>
      <point x="65" y="-80" type="line"/>
      <point x="266" y="707" type="line"/>
      <point x="232" y="707" type="line"/>
      <point x="31" y="-80" type="line"/>
    </contour>
  </outline>
</glyph>
<glyph name="zero" format="1">
  <advance width="578"/>
  <unicode hex="0030"/>
  <outline>
    <contour>
      <point x="290" y="602" type="curve"/>
      <point x="439" y="602"/>
      <point x="477" y="544"/>
      <point x="477" y="316" type="curve"/>
      <point x="477" y="97"/>
      <point x="432" y="29"/>
      <point x="290" y="29" type="curve"/>
      <point x="140" y="29"/>
      <point x="102" y="88"/>
      <point x="102" y="316" type="curve"/>
      <point x="102" y="534"/>
      <point x="147" y="602"/>
    </contour>
    <contour>
      <point x="290" y="-7" type="curve"/>
      <point x="455" y="-7"/>
      <point x="515" y="74"/>
      <point x="515" y="316" type="curve"/>
      <point x="515" y="569"/>
      <point x="465" y="637"/>
      <point x="290" y="637" type="curve"/>
      <point x="123" y="637"/>
      <point x="64" y="558"/>
      <point x="64" y="316" type="curve"/>
      <point x="64" y="61"/>
      <point x="115" y="-7"/>
    </contour>
  </outline>
</glyph>
<glyph name="two" format="1">
  <advance width="451"/>
  <unicode hex="0032"/>
  <outline>
    <contour>
      <point x="408" y="0" type="line"/>
      <point x="408" y="61" type="line"/>
      <point x="106" y="61" type="line"/>
      <point x="313" y="294" type="line" smooth="yes"/>
      <point x="364" y="352"/>
      <point x="397" y="407"/>
      <point x="397" y="482" type="curve"/>
      <point x="397" y="575"/>
      <point x="345" y="637"/>
      <point x="232" y="637" type="curve"/>
      <point x="170" y="637"/>
      <point x="111" y="629"/>
      <point x="61" y="614" type="curve"/>
      <point x="61" y="557" type="line"/>
      <point x="92" y="567"/>
      <point x="168" y="578"/>
      <point x="224" y="578" type="curve"/>
      <point x="300" y="578"/>
      <point x="333" y="536"/>
      <point x="333" y="476" type="curve"/>
      <point x="333" y="416"/>
      <point x="303" y="371"/>
      <point x="261" y="322" type="curve" smooth="yes"/>
      <point x="30" y="61" type="line"/>
      <point x="30" y="0" type="line"/>
    </contour>
  </outline>
</glyph>
<glyph name="three" format="1">
  <advance width="461"/>
  <unicode hex="0033"/>
  <outline>
    <contour>
      <point x="278" y="330" type="line"/>
      <point x="330" y="345"/>
      <point x="384" y="386"/>
      <point x="384" y="479" type="curve"/>
      <point x="384" y="580"/>
      <point x="330" y="637"/>
      <point x="219" y="637" type="curve"/>
      <point x="150" y="637"/>
      <point x="95" y="626"/>
      <point x="57" y="615" type="curve"/>
      <point x="57" y="559" type="line"/>
      <point x="82" y="566"/>
      <point x="145" y="578"/>
      <point x="206" y="578" type="curve"/>
      <point x="290" y="578"/>
      <point x="323" y="543"/>
      <point x="323" y="470" type="curve"/>
      <point x="323" y="385"/>
      <point x="262" y="350"/>
      <point x="191" y="350" type="curve"/>
      <point x="114" y="350" type="line"/>
      <point x="114" y="294" type="line"/>
      <point x="210" y="294" type="line"/>
      <point x="314" y="294"/>
      <point x="351" y="253"/>
      <point x="351" y="177" type="curve"/>
      <point x="351" y="95"/>
      <point x="302" y="53"/>
      <point x="196" y="53" type="curve"/>
      <point x="118" y="53"/>
      <point x="78" y="60"/>
      <point x="37" y="70" type="curve"/>
      <point x="37" y="12" type="line"/>
      <point x="71" y="1"/>
      <point x="119" y="-7"/>
      <point x="205" y="-7" type="curve"/>
      <point x="340" y="-7"/>
      <point x="412" y="56"/>
      <point x="412" y="173" type="curve"/>
      <point x="412" y="272"/>
      <point x="361" y="323"/>
      <point x="278" y="328" type="curve"/>
    </contour>
  </outline>
</glyph>
<glyph name="five" format="1">
  <advance width="460"/>
  <unicode hex="0035"/>
  <outline>
    <contour>
      <point x="216" y="-7" type="curve"/>
      <point x="354" y="-7"/>
      <point x="419" y="54"/>
      <point x="419" y="184" type="curve" smooth="yes"/>
      <point x="419" y="324"/>
      <point x="338" y="357"/>
      <point x="226" y="357" type="curve" smooth="yes"/>
      <point x="190" y="357"/>
      <point x="161" y="353"/>
      <point x="138" y="350" type="curve"/>
      <point x="138" y="568" type="line"/>
      <point x="379" y="568" type="line"/>
      <point x="379" y="627" type="line"/>
      <point x="74" y="627" type="line"/>
      <point x="74" y="289" type="line"/>
      <point x="116" y="298"/>
      <point x="155" y="301"/>
      <point x="198" y="301" type="curve" smooth="yes"/>
      <point x="296" y="301"/>
      <point x="355" y="284"/>
      <point x="355" y="185" type="curve" smooth="yes"/>
      <point x="355" y="89"/>
      <point x="311" y="53"/>
      <point x="202" y="53" type="curve"/>
      <point x="136" y="53"/>
      <point x="86" y="60"/>
      <point x="44" y="71" type="curve"/>
      <point x="44" y="12" type="line"/>
      <point x="79" y="0"/>
      <point x="137" y="-7"/>
    </contour>
  </outline>
</glyph>
<glyph name="six" format="1">
  <advance width="527"/>
  <unicode hex="0036"/>
  <outline>
    <contour>
      <point x="63" y="297" type="curve"/>
      <point x="63" y="74"/>
      <point x="127" y="-7"/>
      <point x="271" y="-7" type="curve"/>
      <point x="403" y="-7"/>
      <point x="481" y="71"/>
      <point x="481" y="208" type="curve"/>
      <point x="481" y="341"/>
      <point x="421" y="392"/>
      <point x="307" y="392" type="curve"/>
      <point x="218" y="392"/>
      <point x="152" y="364"/>
      <point x="88" y="324" type="curve"/>
      <point x="88" y="292" type="line"/>
      <point x="153" y="334"/>
      <point x="222" y="359"/>
      <point x="292" y="359" type="curve"/>
      <point x="398" y="359"/>
      <point x="444" y="319"/>
      <point x="444" y="207" type="curve"/>
      <point x="444" y="94"/>
      <point x="385" y="29"/>
      <point x="270" y="29" type="curve"/>
      <point x="150" y="29"/>
      <point x="100" y="99"/>
      <point x="100" y="295" type="curve"/>
      <point x="100" y="513"/>
      <point x="148" y="602"/>
      <point x="323" y="602" type="curve"/>
      <point x="359" y="602"/>
      <point x="385" y="599"/>
      <point x="403" y="597" type="curve"/>
      <point x="403" y="631" type="line"/>
      <point x="388" y="634"/>
      <point x="354" y="637"/>
      <point x="323" y="637" type="curve"/>
      <point x="125" y="637"/>
      <point x="63" y="531"/>
    </contour>
  </outline>
</glyph>
<glyph name="seven" format="1">
  <advance width="443"/>
  <unicode hex="0037"/>
  <outline>
    <contour>
      <point x="415" y="593" type="line"/>
      <point x="415" y="627" type="line"/>
      <point x="34" y="627" type="line"/>
      <point x="34" y="592" type="line"/>
      <point x="375" y="592" type="line"/>
      <point x="51" y="0" type="line"/>
      <point x="92" y="0" type="line"/>
    </contour>
  </outline>
</glyph>
<glyph name="eight" format="1">
  <advance width="528"/>
  <unicode hex="0038"/>
  <outline>
    <contour>
      <point x="263" y="-7" type="curve"/>
      <point x="410" y="-7"/>
      <point x="476" y="47"/>
      <point x="476" y="167" type="curve"/>
      <point x="476" y="253"/>
      <point x="431" y="311"/>
      <point x="344" y="322" type="curve"/>
      <point x="428" y="336"/>
      <point x="465" y="393"/>
      <point x="465" y="478" type="curve"/>
      <point x="465" y="587"/>
      <point x="404" y="637"/>
      <point x="263" y="637" type="curve"/>
      <point x="126" y="637"/>
      <point x="64" y="584"/>
      <point x="64" y="474" type="curve"/>
      <point x="64" y="393"/>
      <point x="99" y="335"/>
      <point x="183" y="322" type="curve"/>
      <point x="94" y="309"/>
      <point x="52" y="245"/>
      <point x="52" y="160" type="curve"/>
      <point x="52" y="44"/>
      <point x="115" y="-7"/>
    </contour>
    <contour>
      <point x="263" y="580" type="curve"/>
      <point x="365" y="580"/>
      <point x="407" y="545"/>
      <point x="407" y="468" type="curve"/>
      <point x="407" y="396"/>
      <point x="376" y="346"/>
      <point x="262" y="346" type="curve"/>
      <point x="151" y="346"/>
      <point x="122" y="396"/>
      <point x="122" y="466" type="curve"/>
      <point x="122" y="545"/>
      <point x="163" y="580"/>
    </contour>
    <contour>
      <point x="262" y="293" type="curve"/>
      <point x="369" y="293"/>
      <point x="416" y="256"/>
      <point x="416" y="174" type="curve"/>
      <point x="416" y="89"/>
      <point x="370" y="52"/>
      <point x="263" y="52" type="curve"/>
      <point x="160" y="52"/>
      <point x="113" y="88"/>
      <point x="113" y="169" type="curve"/>
      <point x="113" y="255"/>
      <point x="160" y="293"/>
    </contour>
  </outline>
</glyph>
<glyph name="less" format="1">
  <advance width="500"/>
  <unicode hex="003C"/>
  <outline>
    <contour>
      <point x="463" y="502" type="line"/>
      <point x="463" y="538" type="line"/>
      <point x="37" y="332" type="line"/>
      <point x="37" y="298" type="line"/>
    </contour>
    <contour>
      <point x="463" y="86" type="line"/>
      <point x="463" y="122" type="line"/>
      <point x="37" y="327" type="line"/>
      <point x="37" y="293" type="line"/>
    </contour>
  </outline>
</glyph>
<glyph name="question" format="1">
  <advance width="395"/>
  <unicode hex="003F"/>
  <outline>
    <contour>
      <point x="358" y="503" type="curve" smooth="yes"/>
      <point x="358" y="599"/>
      <point x="283" y="637"/>
      <point x="186" y="637" type="curve"/>
      <point x="130" y="637"/>
      <point x="75" y="627"/>
      <point x="26" y="608" type="curve"/>
      <point x="26" y="574" type="line"/>
      <point x="64" y="589"/>
      <point x="119" y="603"/>
      <point x="183" y="603" type="curve"/>
      <point x="253" y="603"/>
      <point x="323" y="578"/>
      <point x="323" y="499" type="curve" smooth="yes"/>
      <point x="323" y="412"/>
      <point x="238" y="357"/>
      <point x="145" y="314" type="curve"/>
      <point x="145" y="152" type="line"/>
      <point x="179" y="152" type="line"/>
      <point x="179" y="296" type="line"/>
      <point x="269" y="342"/>
      <point x="358" y="404"/>
    </contour>
    <contour>
      <point x="181" y="0" type="line"/>
      <point x="181" y="45" type="line"/>
      <point x="140" y="45" type="line"/>
      <point x="140" y="0" type="line"/>
    </contour>
  </outline>
</glyph>
<glyph name="at" format="1">
  <advance width="680"/>
  <unicode hex="0040"/>
  <outline>
    <contour>
      <point x="216" y="172" type="curve"/>
      <point x="216" y="103"/>
      <point x="246" y="69"/>
      <point x="313" y="69" type="curve"/>
      <point x="377" y="69"/>
      <point x="425" y="91"/>
      <point x="455" y="123" type="curve"/>
      <point x="445" y="140" type="line"/>
      <point x="420" y="116"/>
      <point x="378" y="97"/>
      <point x="321" y="97" type="curve"/>
      <point x="267" y="97"/>
      <point x="246" y="122"/>
      <point x="246" y="174" type="curve"/>
      <point x="246" y="227"/>
      <point x="273" y="243"/>
      <point x="344" y="243" type="curve"/>
      <point x="390" y="243"/>
      <point x="420" y="237"/>
      <point x="449" y="233" type="curve"/>
      <point x="449" y="258" type="line"/>
      <point x="426" y="262"/>
      <point x="390" y="269"/>
      <point x="341" y="269" type="curve"/>
      <point x="253" y="269"/>
      <point x="216" y="244"/>
    </contour>
    <contour>
      <point x="624" y="286" type="curve"/>
      <point x="624" y="440"/>
      <point x="554" y="557"/>
      <point x="358" y="557" type="curve"/>
      <point x="158" y="557"/>
      <point x="57" y="462"/>
      <point x="57" y="236" type="curve" smooth="yes"/>
      <point x="57" y="9"/>
      <point x="163" y="-76"/>
      <point x="363" y="-76" type="curve"/>
      <point x="442" y="-76"/>
      <point x="506" y="-58"/>
      <point x="546" y="-36" type="curve"/>
      <point x="546" y="-5" type="line"/>
      <point x="494" y="-33"/>
      <point x="436" y="-46"/>
      <point x="366" y="-46" type="curve"/>
      <point x="185" y="-46"/>
      <point x="89" y="29"/>
      <point x="89" y="236" type="curve" smooth="yes"/>
      <point x="88" y="440"/>
      <point x="169" y="527"/>
      <point x="358" y="527" type="curve"/>
      <point x="544" y="527"/>
      <point x="592" y="413"/>
      <point x="592" y="284" type="curve"/>
      <point x="592" y="166"/>
      <point x="556" y="98"/>
      <point x="502" y="98" type="curve"/>
      <point x="477" y="98"/>
      <point x="471" y="118"/>
      <point x="471" y="144" type="curve" smooth="yes"/>
      <point x="471" y="295" type="line" smooth="yes"/>
      <point x="471" y="366"/>
      <point x="451" y="416"/>
      <point x="354" y="416" type="curve"/>
      <point x="310" y="416"/>
      <point x="285" y="413"/>
      <point x="251" y="404" type="curve"/>
      <point x="251" y="375" type="line"/>
      <point x="279" y="382"/>
      <point x="309" y="388"/>
      <point x="351" y="388" type="curve" smooth="yes"/>
      <point x="432" y="388"/>
      <point x="441" y="340"/>
      <point x="441" y="293" type="curve" smooth="yes"/>
      <point x="441" y="128" type="line"/>
      <point x="444" y="128" type="line"/>
      <point x="444" y="104"/>
      <point x="454" y="69"/>
      <point x="499" y="69" type="curve"/>
      <point x="580" y="69"/>
      <point x="624" y="153"/>
    </contour>
  </outline>
</glyph>
<glyph name="A" format="1">
  <advance width="594"/>
  <unicode hex="0041"/>
  <outline>
    <contour>
      <point x="19" y="0" type="line"/>
      <point x="59" y="0" type="line"/>
      <point x="244" y="456" type="line" smooth="yes"/>
      <point x="266" y="509"/>
      <point x="290" y="567"/>
      <point x="307" y="627" type="curve"/>
      <point x="278" y="627" type="line"/>
    </contour>
    <contour>
      <point x="574" y="0" type="line"/>
      <point x="317" y="627" type="line"/>
      <point x="286" y="627" type="line"/>
      <point x="303" y="567"/>
      <point x="328" y="509"/>
      <point x="349" y="456" type="curve" smooth="yes"/>
      <point x="534" y="0" type="line"/>
    </contour>
    <contour>
      <point x="116" y="182" type="line"/>
      <point x="475" y="182" type="line"/>
      <point x="475" y="216" type="line"/>
      <point x="116" y="216" type="line"/>
    </contour>
    <contour>
      <point x="297" y="645" type="move" name="top"/>
    </contour>
    <contour>
      <point x="574" y="0" type="move" name="ogonek"/>
    </contour>
  </outline>
</glyph>
<glyph name="B" format="1">
  <advance width="565"/>
  <unicode hex="0042"/>
  <outline>
    <contour>
      <point x="299" y="0" type="line" smooth="yes"/>
      <point x="468" y="0"/>
      <point x="512" y="63"/>
      <point x="512" y="177" type="curve"/>
      <point x="512" y="284"/>
      <point x="455" y="327"/>
      <point x="379" y="333" type="curve"/>
      <point x="436" y="342"/>
      <point x="485" y="374"/>
      <point x="485" y="477" type="curve"/>
      <point x="485" y="582"/>
      <point x="441" y="627"/>
      <point x="298" y="627" type="curve" smooth="yes"/>
      <point x="108" y="627" type="line"/>
      <point x="108" y="593" type="line"/>
      <point x="299" y="593" type="line" smooth="yes"/>
      <point x="416" y="593"/>
      <point x="449" y="559"/>
      <point x="449" y="473" type="curve"/>
      <point x="449" y="384"/>
      <point x="408" y="344"/>
      <point x="299" y="344" type="curve" smooth="yes"/>
      <point x="108" y="344" type="line"/>
      <point x="108" y="310" type="line"/>
      <point x="299" y="310" type="line" smooth="yes"/>
      <point x="437" y="310"/>
      <point x="475" y="271"/>
      <point x="475" y="178" type="curve"/>
      <point x="475" y="79"/>
      <point x="437" y="34"/>
      <point x="299" y="34" type="curve" smooth="yes"/>
      <point x="108" y="34" type="line"/>
      <point x="108" y="0" type="line"/>
    </contour>
    <contour>
      <point x="125" y="0" type="line"/>
      <point x="125" y="627" type="line"/>
      <point x="88" y="627" type="line"/>
      <point x="88" y="0" type="line"/>
    </contour>
  </outline>
</glyph>
<glyph name="C" format="1">
  <advance width="531"/>
  <unicode hex="0043"/>
  <outline>
    <contour>
      <point x="496" y="67" type="line"/>
      <point x="445" y="44"/>
      <point x="383" y="29"/>
      <point x="325" y="29" type="curve" smooth="yes"/>
      <point x="163" y="29"/>
      <point x="97" y="91"/>
      <point x="97" y="316" type="curve" smooth="yes"/>
      <point x="97" y="530"/>
      <point x="174" y="602"/>
      <point x="335" y="602" type="curve"/>
      <point x="387" y="602"/>
      <point x="433" y="600"/>
      <point x="482" y="593" type="curve"/>
      <point x="482" y="628" type="line"/>
      <point x="438" y="635"/>
      <point x="387" y="637"/>
      <point x="335" y="637" type="curve"/>
      <point x="156" y="637"/>
      <point x="59" y="552"/>
      <point x="59" y="316" type="curve" smooth="yes"/>
      <point x="59" y="73"/>
      <point x="140" y="-7"/>
      <point x="314" y="-7" type="curve" smooth="yes"/>
      <point x="393" y="-7"/>
      <point x="451" y="14"/>
      <point x="496" y="32" type="curve"/>
    </contour>
    <contour>
      <point x="325" y="655" type="move" name="top"/>
    </contour>
    <contour>
      <point x="307" y="0" type="move" name="bottom"/>
    </contour>
  </outline>
</glyph>
<glyph name="D" format="1">
  <advance width="613"/>
  <unicode hex="0044"/>
  <outline>
    <contour>
      <point x="91" y="592" type="line"/>
      <point x="245" y="592" type="line" smooth="yes"/>
      <point x="449" y="592"/>
      <point x="515" y="541"/>
      <point x="515" y="314" type="curve"/>
      <point x="515" y="108"/>
      <point x="429" y="35"/>
      <point x="245" y="35" type="curve" smooth="yes"/>
      <point x="93" y="35" type="line"/>
      <point x="93" y="0" type="line"/>
      <point x="245" y="0" type="line" smooth="yes"/>
      <point x="447" y="0"/>
      <point x="553" y="83"/>
      <point x="553" y="314" type="curve"/>
      <point x="553" y="572"/>
      <point x="469" y="627"/>
      <point x="245" y="627" type="curve" smooth="yes"/>
      <point x="91" y="627" type="line"/>
    </contour>
    <contour>
      <point x="125" y="0" type="line"/>
      <point x="125" y="627" type="line"/>
      <point x="88" y="627" type="line"/>
      <point x="88" y="0" type="line"/>
    </contour>
    <contour>
      <point x="292" y="645" type="move" name="top"/>
    </contour>
  </outline>
</glyph>
<glyph name="E" format="1">
  <advance width="528"/>
  <unicode hex="0045"/>
  <outline>
    <contour>
      <point x="490" y="0" type="line"/>
      <point x="490" y="61" type="line"/>
      <point x="143" y="61" type="line"/>
      <point x="143" y="293" type="line"/>
      <point x="444" y="293" type="line"/>
      <point x="444" y="350" type="line"/>
      <point x="143" y="350" type="line"/>
      <point x="143" y="568" type="line"/>
      <point x="481" y="568" type="line"/>
      <point x="481" y="627" type="line"/>
      <point x="79" y="627" type="line"/>
      <point x="79" y="0" type="line"/>
    </contour>
    <contour>
      <point x="288" y="645" type="move" name="top"/>
    </contour>
    <contour>
      <point x="432" y="0" type="move" name="ogonek"/>
    </contour>
  </outline>
</glyph>
<glyph name="G" format="1">
  <advance width="612"/>
  <unicode hex="0047"/>
  <outline>
    <contour>
      <point x="518" y="31" type="line"/>
      <point x="554" y="31" type="line"/>
      <point x="554" y="301" type="line"/>
      <point x="518" y="301" type="line"/>
    </contour>
    <contour>
      <point x="536" y="62" type="line"/>
      <point x="505" y="46"/>
      <point x="397" y="28"/>
      <point x="333" y="28" type="curve"/>
      <point x="163" y="28"/>
      <point x="98" y="76"/>
      <point x="98" y="314" type="curve" smooth="yes"/>
      <point x="98" y="516"/>
      <point x="173" y="602"/>
      <point x="343" y="602" type="curve" smooth="yes"/>
      <point x="411" y="602"/>
      <point x="478" y="598"/>
      <point x="520" y="593" type="curve"/>
      <point x="520" y="627" type="line"/>
      <point x="480" y="632"/>
      <point x="414" y="637"/>
      <point x="343" y="637" type="curve"/>
      <point x="158" y="637"/>
      <point x="60" y="542"/>
      <point x="60" y="314" type="curve" smooth="yes"/>
      <point x="60" y="61"/>
      <point x="136" y="-7"/>
      <point x="323" y="-7" type="curve"/>
      <point x="413" y="-7"/>
      <point x="524" y="17"/>
      <point x="554" y="31" type="curve"/>
    </contour>
    <contour>
      <point x="319" y="278" type="line"/>
      <point x="554" y="278" type="line"/>
      <point x="554" y="312" type="line"/>
      <point x="319" y="312" type="line"/>
    </contour>
    <contour>
      <point x="343" y="655" type="move" name="top"/>
    </contour>
    <contour>
      <point x="333" y="0" type="move" name="bottom"/>
    </contour>
  </outline>
</glyph>
<glyph name="H" format="1">
  <advance width="652"/>
  <unicode hex="0048"/>
  <outline>
    <contour>
      <point x="88" y="0" type="line"/>
      <point x="125" y="0" type="line"/>
      <point x="125" y="627" type="line"/>
      <point x="88" y="627" type="line"/>
    </contour>
    <contour>
      <point x="527" y="0" type="line"/>
      <point x="565" y="0" type="line"/>
      <point x="565" y="627" type="line"/>
      <point x="527" y="627" type="line"/>
    </contour>
    <contour>
      <point x="113" y="301" type="line"/>
      <point x="549" y="301" type="line"/>
      <point x="549" y="335" type="line"/>
      <point x="113" y="335" type="line"/>
    </contour>
    <contour>
      <point x="326" y="645" type="move" name="top"/>
    </contour>
  </outline>
</glyph>
<glyph name="I" format="1">
  <advance width="213"/>
  <unicode hex="0049"/>
  <outline>
    <contour>
      <point x="125" y="0" type="line"/>
      <point x="125" y="627" type="line"/>
      <point x="88" y="627" type="line"/>
      <point x="88" y="0" type="line"/>
    </contour>
    <contour>
      <point x="107" y="645" type="move" name="top"/>
    </contour>
    <contour>
      <point x="125" y="0" type="move" name="ogonek"/>
    </contour>
  </outline>
</glyph>
<glyph name="K" format="1">
  <advance width="575"/>
  <unicode hex="004B"/>
  <outline>
    <contour>
      <point x="568" y="0" type="line"/>
      <point x="293" y="320" type="line"/>
      <point x="557" y="627" type="line"/>
      <point x="477" y="627" type="line"/>
      <point x="237" y="347" type="line"/>
      <point x="143" y="347" type="line"/>
      <point x="143" y="627" type="line"/>
      <point x="79" y="627" type="line"/>
      <point x="79" y="0" type="line"/>
      <point x="143" y="0" type="line"/>
      <point x="143" y="290" type="line"/>
      <point x="237" y="290" type="line"/>
      <point x="483" y="0" type="line"/>
    </contour>
    <contour>
      <point x="280" y="0" type="move" name="bottom"/>
    </contour>
  </outline>
</glyph>
<glyph name="L" format="1">
  <advance width="477"/>
  <unicode hex="004C"/>
  <outline>
    <contour>
      <point x="458" y="0" type="line"/>
      <point x="458" y="61" type="line"/>
      <point x="143" y="61" type="line"/>
      <point x="143" y="627" type="line"/>
      <point x="79" y="627" type="line"/>
      <point x="79" y="0" type="line"/>
    </contour>
    <contour>
      <point x="111" y="645" type="move" name="top"/>
    </contour>
    <contour>
      <point x="347" y="627" type="move" name="caronalt"/>
    </contour>
    <contour>
      <point x="278" y="0" type="move" name="bottom"/>
    </contour>
  </outline>
</glyph>
<glyph name="M" format="1">
  <advance width="741"/>
  <unicode hex="004D"/>
  <outline>
    <contour>
      <point x="653" y="0" type="line"/>
      <point x="653" y="627" type="line"/>
      <point x="604" y="627" type="line"/>
      <point x="371" y="172" type="line"/>
      <point x="138" y="627" type="line"/>
      <point x="88" y="627" type="line"/>
      <point x="88" y="0" type="line"/>
      <point x="124" y="0" type="line"/>
      <point x="124" y="575" type="line"/>
      <point x="352" y="129" type="line"/>
      <point x="389" y="129" type="line"/>
      <point x="617" y="574" type="line"/>
      <point x="617" y="0" type="line"/>
    </contour>
  </outline>
</glyph>
<glyph name="P" format="1">
  <advance width="566"/>
  <unicode hex="0050"/>
  <outline>
    <contour>
      <point x="290" y="211" type="line" smooth="yes"/>
      <point x="446" y="211"/>
      <point x="530" y="274"/>
      <point x="530" y="426" type="curve"/>
      <point x="530" y="570"/>
      <point x="457" y="627"/>
      <point x="287" y="627" type="curve" smooth="yes"/>
      <point x="120" y="627" type="line"/>
      <point x="120" y="568" type="line"/>
      <point x="287" y="568" type="line" smooth="yes"/>
      <point x="411" y="568"/>
      <point x="465" y="530"/>
      <point x="465" y="426" type="curve"/>
      <point x="465" y="309"/>
      <point x="404" y="268"/>
      <point x="287" y="268" type="curve" smooth="yes"/>
      <point x="120" y="268" type="line"/>
      <point x="120" y="211" type="line"/>
    </contour>
    <contour>
      <point x="143" y="0" type="line"/>
      <point x="143" y="627" type="line"/>
      <point x="79" y="627" type="line"/>
      <point x="79" y="0" type="line"/>
    </contour>
  </outline>
</glyph>
<glyph name="R" format="1">
  <advance width="579"/>
  <unicode hex="0052"/>
  <outline>
    <contour>
      <point x="290" y="232" type="line" smooth="yes"/>
      <point x="446" y="232"/>
      <point x="530" y="292"/>
      <point x="530" y="436" type="curve"/>
      <point x="530" y="573"/>
      <point x="457" y="627"/>
      <point x="287" y="627" type="curve" smooth="yes"/>
      <point x="120" y="627" type="line"/>
      <point x="120" y="568" type="line"/>
      <point x="287" y="568" type="line" smooth="yes"/>
      <point x="411" y="568"/>
      <point x="465" y="533"/>
      <point x="465" y="436" type="curve"/>
      <point x="465" y="328"/>
      <point x="404" y="289"/>
      <point x="287" y="289" type="curve" smooth="yes"/>
      <point x="120" y="289" type="line"/>
      <point x="120" y="232" type="line"/>
    </contour>
    <contour>
      <point x="143" y="0" type="line"/>
      <point x="143" y="627" type="line"/>
      <point x="79" y="627" type="line"/>
      <point x="79" y="0" type="line"/>
    </contour>
    <contour>
      <point x="299" y="247" type="line"/>
      <point x="468" y="0" type="line"/>
      <point x="545" y="0" type="line"/>
      <point x="372" y="247" type="line"/>
    </contour>
    <contour>
      <point x="287" y="645" type="move" name="top"/>
    </contour>
    <contour>
      <point x="285" y="0" type="move" name="bottom"/>
    </contour>
  </outline>
</glyph>
<glyph name="T" format="1">
  <advance width="546"/>
  <unicode hex="0054"/>
  <outline>
    <contour>
      <point x="525" y="592" type="line"/>
      <point x="525" y="627" type="line"/>
      <point x="21" y="627" type="line"/>
      <point x="21" y="592" type="line"/>
      <point x="254" y="592" type="line"/>
      <point x="254" y="0" type="line"/>
      <point x="292" y="0" type="line"/>
      <point x="292" y="592" type="line"/>
    </contour>
    <contour>
      <point x="273" y="645" type="move" name="top"/>
    </contour>
    <contour>
      <point x="273" y="0" type="move" name="bottom"/>
    </contour>
  </outline>
</glyph>
<glyph name="U" format="1">
  <advance width="637"/>
  <unicode hex="0055"/>
  <outline>
    <contour>
      <point x="499" y="627" type="line"/>
      <point x="499" y="246" type="line" smooth="yes"/>
      <point x="499" y="109"/>
      <point x="453" y="53"/>
      <point x="316" y="53" type="curve"/>
      <point x="181" y="53"/>
      <point x="137" y="110"/>
      <point x="137" y="246" type="curve" smooth="yes"/>
      <point x="137" y="627" type="line"/>
      <point x="73" y="627" type="line"/>
      <point x="73" y="246" type="line" smooth="yes"/>
      <point x="73" y="78"/>
      <point x="139" y="-7"/>
      <point x="316" y="-7" type="curve"/>
      <point x="493" y="-7"/>
      <point x="563" y="79"/>
      <point x="563" y="246" type="curve" smooth="yes"/>
      <point x="563" y="627" type="line"/>
    </contour>
    <contour>
      <point x="315" y="645" type="move" name="top"/>
    </contour>
    <contour>
      <point x="457" y="21" type="move" name="ogonekalt"/>
    </contour>
  </outline>
</glyph>
<glyph name="V" format="1">
  <advance width="576"/>
  <unicode hex="0056"/>
  <outline>
    <contour>
      <point x="556" y="627" type="line"/>
      <point x="516" y="627" type="line"/>
      <point x="339" y="171" type="line" smooth="yes"/>
      <point x="318" y="118"/>
      <point x="296" y="60"/>
      <point x="279" y="0" type="curve"/>
      <point x="309" y="0" type="line"/>
    </contour>
    <contour>
      <point x="19" y="627" type="line"/>
      <point x="267" y="0" type="line"/>
      <point x="297" y="0" type="line"/>
      <point x="280" y="60"/>
      <point x="258" y="118"/>
      <point x="238" y="171" type="curve" smooth="yes"/>
      <point x="60" y="627" type="line"/>
    </contour>
  </outline>
</glyph>
<glyph name="W" format="1">
  <advance width="858"/>
  <unicode hex="0057"/>
  <outline>
    <contour>
      <point x="446" y="627" type="curve"/>
      <point x="396" y="627" type="line"/>
      <point x="267" y="205" type="line" smooth="yes"/>
      <point x="251" y="150"/>
      <point x="237" y="68"/>
      <point x="219" y="0" type="curve"/>
      <point x="268" y="0" type="line"/>
      <point x="387" y="379" type="line" smooth="yes"/>
      <point x="413" y="464"/>
      <point x="429" y="545"/>
    </contour>
    <contour>
      <point x="18" y="627" type="line"/>
      <point x="195" y="0" type="line"/>
      <point x="246" y="0" type="line"/>
      <point x="230" y="70"/>
      <point x="218" y="148"/>
      <point x="203" y="205" type="curve" smooth="yes"/>
      <point x="88" y="627" type="line"/>
    </contour>
    <contour>
      <point x="840" y="627" type="line"/>
      <point x="772" y="627" type="line"/>
      <point x="658" y="205" type="line" smooth="yes"/>
      <point x="643" y="148"/>
      <point x="630" y="68"/>
      <point x="614" y="0" type="curve"/>
      <point x="663" y="0" type="line"/>
    </contour>
    <contour>
      <point x="412" y="627" type="line"/>
      <point x="430" y="545"/>
      <point x="445" y="464"/>
      <point x="471" y="379" type="curve" smooth="yes"/>
      <point x="591" y="0" type="line"/>
      <point x="642" y="0" type="line"/>
      <point x="624" y="70"/>
      <point x="610" y="150"/>
      <point x="593" y="205" type="curve" smooth="yes"/>
      <point x="464" y="627" type="line"/>
    </contour>
    <contour>
      <point x="430" y="645" type="move" name="top"/>
    </contour>
  </outline>
</glyph>
<glyph name="X" format="1">
  <advance width="537"/>
  <unicode hex="0058"/>
  <outline>
    <contour>
      <point x="524" y="0" type="line"/>
      <point x="287" y="324" type="line"/>
      <point x="503" y="627" type="line"/>
      <point x="461" y="627" type="line"/>
      <point x="265" y="351" type="line"/>
      <point x="71" y="627" type="line"/>
      <point x="26" y="627" type="line"/>
      <point x="243" y="323" type="line"/>
      <point x="18" y="0" type="line"/>
      <point x="61" y="0" type="line"/>
      <point x="264" y="295" type="line"/>
      <point x="478" y="0" type="line"/>
    </contour>
    <contour>
      <point x="265" y="645" type="move" name="top"/>
    </contour>
  </outline>
</glyph>
<glyph name="Z" format="1">
  <advance width="508"/>
  <unicode hex="005A"/>
  <outline>
    <contour>
      <point x="484" y="0" type="line"/>
      <point x="484" y="35" type="line"/>
      <point x="71" y="35" type="line"/>
      <point x="465" y="592" type="line"/>
      <point x="465" y="627" type="line"/>
      <point x="56" y="627" type="line"/>
      <point x="56" y="592" type="line"/>
      <point x="422" y="592" type="line"/>
      <point x="27" y="35" type="line"/>
      <point x="27" y="0" type="line"/>
    </contour>
    <contour>
      <point x="261" y="645" type="move" name="top"/>
    </contour>
  </outline>
</glyph>
<glyph name="backslash" format="1">
  <advance width="295"/>
  <unicode hex="005C"/>
  <outline>
    <contour>
      <point x="265" y="-80" type="line"/>
      <point x="64" y="707" type="line"/>
      <point x="30" y="707" type="line"/>
      <point x="231" y="-80" type="line"/>
    </contour>
  </outline>
</glyph>
<glyph name="asciicircum" format="1">
  <advance width="500"/>
  <unicode hex="005E"/>
  <outline>
    <contour>
      <point x="372" y="365" type="line"/>
      <point x="408" y="365" type="line"/>
      <point x="268" y="627" type="line"/>
      <point x="234" y="627" type="line"/>
    </contour>
    <contour>
      <point x="91" y="365" type="line"/>
      <point x="128" y="365" type="line"/>
      <point x="267" y="627" type="line"/>
      <point x="232" y="627" type="line"/>
    </contour>
  </outline>
</glyph>
<glyph name="grave" format="1">
  <advance width="283"/>
  <unicode hex="0060"/>
  <outline>
    <contour>
      <point x="50" y="685" type="line"/>
      <point x="175" y="566" type="line"/>
      <point x="233" y="566" type="line"/>
      <point x="131" y="685" type="line"/>
    </contour>
    <contour>
      <point x="172" y="530" type="move" name="_top"/>
    </contour>
  </outline>
</glyph>
<glyph name="a" format="1">
  <advance width="495"/>
  <unicode hex="0061"/>
  <outline>
    <contour>
      <point x="36" y="143" type="curve"/>
      <point x="36" y="40"/>
      <point x="81" y="-7"/>
      <point x="183" y="-7" type="curve"/>
      <point x="260" y="-7"/>
      <point x="336" y="20"/>
      <point x="373" y="55" type="curve"/>
      <point x="373" y="103" type="line"/>
      <point x="342" y="75"/>
      <point x="270" y="49"/>
      <point x="201" y="49" type="curve"/>
      <point x="125" y="49"/>
      <point x="95" y="78"/>
      <point x="95" y="147" type="curve"/>
      <point x="95" y="214"/>
      <point x="132" y="236"/>
      <point x="232" y="236" type="curve"/>
      <point x="293" y="236"/>
      <point x="338" y="230"/>
      <point x="378" y="222" type="curve"/>
      <point x="378" y="272" type="line"/>
      <point x="345" y="279"/>
      <point x="293" y="287"/>
      <point x="225" y="287" type="curve"/>
      <point x="91" y="287"/>
      <point x="36" y="250"/>
    </contour>
    <contour>
      <point x="371" y="0" type="line"/>
      <point x="427" y="0" type="line"/>
      <point x="427" y="332" type="line" smooth="yes"/>
      <point x="427" y="445"/>
      <point x="378" y="504"/>
      <point x="256" y="504" type="curve" smooth="yes"/>
      <point x="181" y="504"/>
      <point x="136" y="498"/>
      <point x="86" y="486" type="curve"/>
      <point x="86" y="431" type="line"/>
      <point x="128" y="442"/>
      <point x="168" y="448"/>
      <point x="237" y="448" type="curve" smooth="yes"/>
      <point x="338" y="448"/>
      <point x="365" y="404"/>
      <point x="365" y="327" type="curve" smooth="yes"/>
      <point x="365" y="49" type="line"/>
      <point x="368" y="49" type="line"/>
    </contour>
    <contour>
      <point x="247" y="530" type="move" name="top"/>
    </contour>
    <contour>
      <point x="427" y="0" type="move" name="ogonek"/>
    </contour>
  </outline>
</glyph>
<glyph name="c" format="1">
  <advance width="450"/>
  <unicode hex="0063"/>
  <outline>
    <contour>
      <point x="415" y="30" type="curve"/>
      <point x="415" y="62" type="line"/>
      <point x="390" y="49"/>
      <point x="326" y="27"/>
      <point x="252" y="27" type="curve"/>
      <point x="132" y="27"/>
      <point x="93" y="81"/>
      <point x="93" y="249" type="curve" smooth="yes"/>
      <point x="93" y="418"/>
      <point x="151" y="471"/>
      <point x="292" y="471" type="curve"/>
      <point x="355" y="471"/>
      <point x="379" y="466"/>
      <point x="402" y="462" type="curve"/>
      <point x="402" y="495" type="line"/>
      <point x="382" y="498"/>
      <point x="356" y="504"/>
      <point x="292" y="504" type="curve"/>
      <point x="129" y="504"/>
      <point x="57" y="438"/>
      <point x="57" y="249" type="curve" smooth="yes"/>
      <point x="57" y="60"/>
      <point x="105" y="-7"/>
      <point x="244" y="-7" type="curve"/>
      <point x="328" y="-7"/>
      <point x="389" y="14"/>
    </contour>
    <contour>
      <point x="270" y="530" type="move" name="top"/>
    </contour>
    <contour>
      <point x="250" y="0" type="move" name="bottom"/>
    </contour>
  </outline>
</glyph>
<glyph name="e" format="1">
  <advance width="500"/>
  <unicode hex="0065"/>
  <outline>
    <contour>
      <point x="262" y="448" type="curve"/>
      <point x="364" y="448"/>
      <point x="397" y="401"/>
      <point x="398" y="307" type="curve"/>
      <point x="398" y="296"/>
      <point x="397" y="287"/>
      <point x="396" y="281" type="curve"/>
      <point x="111" y="281" type="line"/>
      <point x="111" y="400"/>
      <point x="151" y="448"/>
    </contour>
    <contour>
      <point x="434" y="27" type="curve"/>
      <point x="434" y="80" type="line"/>
      <point x="405" y="68"/>
      <point x="339" y="50"/>
      <point x="271" y="50" type="curve" smooth="yes"/>
      <point x="165" y="50"/>
      <point x="112" y="90"/>
      <point x="111" y="228" type="curve"/>
      <point x="450" y="228" type="line"/>
      <point x="453" y="251"/>
      <point x="455" y="271"/>
      <point x="455" y="299" type="curve"/>
      <point x="455" y="444"/>
      <point x="400" y="504"/>
      <point x="262" y="504" type="curve"/>
      <point x="115" y="504"/>
      <point x="48" y="432"/>
      <point x="48" y="251" type="curve" smooth="yes"/>
      <point x="48" y="63"/>
      <point x="113" y="-7"/>
      <point x="261" y="-7" type="curve" smooth="yes"/>
      <point x="339" y="-7"/>
      <point x="407" y="13"/>
    </contour>
    <contour>
      <point x="263" y="530" type="move" name="top"/>
    </contour>
    <contour>
      <point x="396" y="13" type="move" name="ogonekalt"/>
    </contour>
  </outline>
</glyph>
<glyph name="f" format="1">
  <advance width="349"/>
  <unicode hex="0066"/>
  <outline>
    <contour>
      <point x="344" y="668" type="line"/>
      <point x="329" y="671"/>
      <point x="304" y="675"/>
      <point x="266" y="675" type="curve"/>
      <point x="149" y="675"/>
      <point x="109" y="617"/>
      <point x="109" y="515" type="curve"/>
      <point x="109" y="0" type="line"/>
      <point x="145" y="0" type="line"/>
      <point x="145" y="515" type="line"/>
      <point x="145" y="602"/>
      <point x="172" y="642"/>
      <point x="266" y="642" type="curve"/>
      <point x="300" y="642"/>
      <point x="330" y="639"/>
      <point x="344" y="636" type="curve"/>
    </contour>
    <contour>
      <point x="25" y="462" type="line"/>
      <point x="329" y="462" type="line"/>
      <point x="329" y="494" type="line"/>
      <point x="25" y="494" type="line"/>
    </contour>
  </outline>
</glyph>
<glyph name="g" format="1">
  <advance width="539"/>
  <unicode hex="0067"/>
  <outline>
    <contour>
      <point x="116" y="-139" type="line"/>
      <point x="145" y="-150"/>
      <point x="197" y="-162"/>
      <point x="271" y="-162" type="curve"/>
      <point x="415" y="-162"/>
      <point x="459" y="-98"/>
      <point x="459" y="55" type="curve" smooth="yes"/>
      <point x="459" y="485" type="line"/>
      <point x="423" y="485" type="line"/>
      <point x="423" y="48" type="line" smooth="yes"/>
      <point x="423" y="-80"/>
      <point x="387" y="-128"/>
      <point x="264" y="-128" type="curve"/>
      <point x="199" y="-128"/>
      <point x="139" y="-115"/>
      <point x="116" y="-105" type="curve"/>
    </contour>
    <contour>
      <point x="428" y="122" type="line"/>
      <point x="377" y="83"/>
      <point x="316" y="68"/>
      <point x="259" y="68" type="curve"/>
      <point x="148" y="68"/>
      <point x="93" y="109"/>
      <point x="93" y="269" type="curve" smooth="yes"/>
      <point x="93" y="431"/>
      <point x="153" y="471"/>
      <point x="293" y="471" type="curve"/>
      <point x="355" y="471"/>
      <point x="407" y="461"/>
      <point x="437" y="454" type="curve"/>
      <point x="459" y="485" type="line"/>
      <point x="424" y="493"/>
      <point x="365" y="504"/>
      <point x="293" y="504" type="curve"/>
      <point x="131" y="504"/>
      <point x="57" y="449"/>
      <point x="57" y="269" type="curve" smooth="yes"/>
      <point x="57" y="89"/>
      <point x="124" y="34"/>
      <point x="249" y="34" type="curve"/>
      <point x="314" y="34"/>
      <point x="376" y="51"/>
      <point x="431" y="92" type="curve"/>
    </contour>
    <contour>
      <point x="274" y="530" type="move" name="top"/>
    </contour>
  </outline>
</glyph>
<glyph name="i" format="1">
  <advance width="196"/>
  <unicode hex="0069"/>
  <outline>
    <contour>
      <point x="80" y="0" type="line"/>
      <point x="116" y="0" type="line"/>
      <point x="116" y="494" type="line"/>
      <point x="80" y="494" type="line"/>
    </contour>
    <contour>
      <point x="78" y="618" type="line"/>
      <point x="118" y="618" type="line"/>
      <point x="118" y="664" type="line"/>
      <point x="78" y="664" type="line"/>
    </contour>
    <contour>
      <point x="116" y="0" type="move" name="ogonek"/>
    </contour>
  </outline>
</glyph>
<glyph name="j" format="1">
  <advance width="216"/>
  <unicode hex="006A"/>
  <outline>
    <contour>
      <point x="-80" y="-156" type="line"/>
      <point x="-61" y="-159"/>
      <point x="-41" y="-162"/>
      <point x="-7" y="-162" type="curve"/>
      <point x="93" y="-162"/>
      <point x="144" y="-107"/>
      <point x="144" y="5" type="curve"/>
      <point x="144" y="494" type="line"/>
      <point x="82" y="494" type="line"/>
      <point x="82" y="11" type="line"/>
      <point x="82" y="-69"/>
      <point x="54" y="-106"/>
      <point x="-25" y="-106" type="curve"/>
      <point x="-45" y="-106"/>
      <point x="-62" y="-104"/>
      <point x="-80" y="-101" type="curve"/>
    </contour>
    <contour>
      <point x="79" y="596" type="line"/>
      <point x="147" y="596" type="line"/>
      <point x="147" y="665" type="line"/>
      <point x="79" y="665" type="line"/>
    </contour>
  </outline>
</glyph>
<glyph name="m" format="1">
  <advance width="805"/>
  <unicode hex="006D"/>
  <outline>
    <contour>
      <point x="72" y="0" type="line"/>
      <point x="134" y="0" type="line"/>
      <point x="134" y="426" type="line"/>
      <point x="128" y="494" type="line"/>
      <point x="72" y="494" type="line"/>
    </contour>
    <contour>
      <point x="119" y="396" type="line"/>
      <point x="164" y="421"/>
      <point x="214" y="448"/>
      <point x="266" y="448" type="curve" smooth="yes"/>
      <point x="341" y="448"/>
      <point x="374" y="418"/>
      <point x="374" y="353" type="curve" smooth="yes"/>
      <point x="374" y="0" type="line"/>
      <point x="436" y="0" type="line"/>
      <point x="436" y="360" type="line" smooth="yes"/>
      <point x="436" y="456"/>
      <point x="384" y="504"/>
      <point x="292" y="504" type="curve" smooth="yes"/>
      <point x="230" y="504"/>
      <point x="180" y="480"/>
      <point x="134" y="453" type="curve"/>
      <point x="119" y="453" type="line"/>
    </contour>
    <contour>
      <point x="411" y="397" type="line"/>
      <point x="457" y="425"/>
      <point x="513" y="448"/>
      <point x="568" y="448" type="curve" smooth="yes"/>
      <point x="642" y="448"/>
      <point x="675" y="418"/>
      <point x="675" y="353" type="curve" smooth="yes"/>
      <point x="675" y="0" type="line"/>
      <point x="737" y="0" type="line"/>
      <point x="737" y="360" type="line" smooth="yes"/>
      <point x="737" y="456"/>
      <point x="686" y="504"/>
      <point x="593" y="504" type="curve" smooth="yes"/>
      <point x="521" y="504"/>
      <point x="463" y="480"/>
      <point x="415" y="451" type="curve"/>
      <point x="410" y="451" type="line"/>
    </contour>
  </outline>
</glyph>
<glyph name="n" format="1">
  <advance width="553"/>
  <unicode hex="006E"/>
  <outline>
    <contour>
      <point x="72" y="0" type="line"/>
      <point x="134" y="0" type="line"/>
      <point x="134" y="446" type="line"/>
      <point x="129" y="446" type="line"/>
      <point x="125" y="494" type="line"/>
      <point x="72" y="494" type="line"/>
    </contour>
    <contour>
      <point x="120" y="389" type="line"/>
      <point x="173" y="423"/>
      <point x="233" y="448"/>
      <point x="297" y="448" type="curve" smooth="yes"/>
      <point x="382" y="448"/>
      <point x="423" y="412"/>
      <point x="423" y="335" type="curve" smooth="yes"/>
      <point x="423" y="0" type="line"/>
      <point x="485" y="0" type="line"/>
      <point x="485" y="342" type="line" smooth="yes"/>
      <point x="485" y="451"/>
      <point x="426" y="504"/>
      <point x="319" y="504" type="curve" smooth="yes"/>
      <point x="241" y="504"/>
      <point x="182" y="482"/>
      <point x="120" y="438" type="curve"/>
    </contour>
    <contour>
      <point x="278" y="530" type="move" name="top"/>
    </contour>
    <contour>
      <point x="-15" y="665" type="move" name="caronalt"/>
    </contour>
    <contour>
      <point x="278" y="0" type="move" name="bottom"/>
    </contour>
  </outline>
</glyph>
<glyph name="o" format="1">
  <advance width="547"/>
  <unicode hex="006F"/>
  <outline>
    <contour>
      <point x="274" y="-7" type="curve" smooth="yes"/>
      <point x="438" y="-7"/>
      <point x="497" y="61"/>
      <point x="497" y="248" type="curve" smooth="yes"/>
      <point x="497" y="444"/>
      <point x="444" y="504"/>
      <point x="274" y="504" type="curve" smooth="yes"/>
      <point x="109" y="504"/>
      <point x="49" y="436"/>
      <point x="49" y="248" type="curve" smooth="yes"/>
      <point x="49" y="53"/>
      <point x="103" y="-7"/>
    </contour>
    <contour>
      <point x="274" y="50" type="curve" smooth="yes"/>
      <point x="143" y="50"/>
      <point x="111" y="89"/>
      <point x="111" y="249" type="curve" smooth="yes"/>
      <point x="111" y="404"/>
      <point x="148" y="448"/>
      <point x="274" y="448" type="curve" smooth="yes"/>
      <point x="403" y="448"/>
      <point x="435" y="409"/>
      <point x="435" y="249" type="curve" smooth="yes"/>
      <point x="435" y="94"/>
      <point x="398" y="50"/>
    </contour>
    <contour>
      <point x="274" y="530" type="move" name="top"/>
    </contour>
  </outline>
</glyph>
<glyph name="q" format="1">
  <advance width="544"/>
  <unicode hex="0071"/>
  <outline>
    <contour>
      <point x="464" y="-152" type="line"/>
      <point x="464" y="485" type="line"/>
      <point x="428" y="485" type="line"/>
      <point x="428" y="-152" type="line"/>
    </contour>
    <contour>
      <point x="433" y="81" type="line"/>
      <point x="383" y="42"/>
      <point x="319" y="27"/>
      <point x="261" y="27" type="curve"/>
      <point x="148" y="27"/>
      <point x="93" y="72"/>
      <point x="93" y="249" type="curve" smooth="yes"/>
      <point x="93" y="427"/>
      <point x="154" y="471"/>
      <point x="295" y="471" type="curve"/>
      <point x="358" y="471"/>
      <point x="410" y="462"/>
      <point x="441" y="454" type="curve"/>
      <point x="464" y="485" type="line"/>
      <point x="427" y="494"/>
      <point x="369" y="504"/>
      <point x="295" y="504" type="curve"/>
      <point x="132" y="504"/>
      <point x="57" y="444"/>
      <point x="57" y="249" type="curve" smooth="yes"/>
      <point x="57" y="54"/>
      <point x="125" y="-7"/>
      <point x="250" y="-7" type="curve"/>
      <point x="317" y="-7"/>
      <point x="383" y="9"/>
      <point x="436" y="51" type="curve"/>
    </contour>
  </outline>
</glyph>
<glyph name="r" format="1">
  <advance width="350"/>
  <unicode hex="0072"/>
  <outline>
    <contour>
      <point x="80" y="0" type="line"/>
      <point x="116" y="0" type="line"/>
      <point x="116" y="428" type="line"/>
      <point x="111" y="494" type="line"/>
      <point x="80" y="494" type="line"/>
    </contour>
    <contour>
      <point x="106" y="410" type="line"/>
      <point x="160" y="444"/>
      <point x="226" y="463"/>
      <point x="279" y="463" type="curve"/>
      <point x="291" y="463"/>
      <point x="314" y="463"/>
      <point x="327" y="460" type="curve"/>
      <point x="327" y="495" type="line"/>
      <point x="320" y="496"/>
      <point x="304" y="497"/>
      <point x="289" y="497" type="curve"/>
      <point x="231" y="497"/>
      <point x="171" y="478"/>
      <point x="117" y="448" type="curve"/>
      <point x="106" y="448" type="line"/>
    </contour>
    <contour>
      <point x="204" y="529" type="move" name="top"/>
    </contour>
    <contour>
      <point x="98" y="0" type="move" name="bottom"/>
    </contour>
  </outline>
</glyph>
<glyph name="s" format="1">
  <advance width="442"/>
  <unicode hex="0073"/>
  <outline>
    <contour>
      <point x="110" y="357" type="curve" smooth="yes"/>
      <point x="110" y="417"/>
      <point x="127" y="448"/>
      <point x="235" y="448" type="curve" smooth="yes"/>
      <point x="295" y="448"/>
      <point x="341" y="443"/>
      <point x="370" y="438" type="curve"/>
      <point x="370" y="494" type="line"/>
      <point x="346" y="498"/>
      <point x="311" y="504"/>
      <point x="232" y="504" type="curve" smooth="yes"/>
      <point x="86" y="504"/>
      <point x="48" y="443"/>
      <point x="48" y="356" type="curve" smooth="yes"/>
      <point x="48" y="290"/>
      <point x="73" y="250"/>
      <point x="142" y="240" type="curve" smooth="yes"/>
      <point x="270" y="220" type="line" smooth="yes"/>
      <point x="324" y="211"/>
      <point x="342" y="195"/>
      <point x="342" y="146" type="curve" smooth="yes"/>
      <point x="342" y="72"/>
      <point x="307" y="50"/>
      <point x="223" y="50" type="curve" smooth="yes"/>
      <point x="139" y="50"/>
      <point x="74" y="64"/>
      <point x="45" y="75" type="curve"/>
      <point x="45" y="16" type="line"/>
      <point x="74" y="6"/>
      <point x="138" y="-7"/>
      <point x="232" y="-7" type="curve" smooth="yes"/>
      <point x="345" y="-7"/>
      <point x="404" y="31"/>
      <point x="404" y="150" type="curve" smooth="yes"/>
      <point x="404" y="231"/>
      <point x="376" y="262"/>
      <point x="295" y="274" type="curve" smooth="yes"/>
      <point x="166" y="294" type="line" smooth="yes"/>
      <point x="126" y="300"/>
      <point x="110" y="318"/>
    </contour>
    <contour>
      <point x="227" y="530" type="move" name="top"/>
    </contour>
    <contour>
      <point x="215" y="0" type="move" name="bottom"/>
    </contour>
  </outline>
</glyph>
<glyph name="t" format="1">
  <advance width="367"/>
  <unicode hex="0074"/>
  <outline>
    <contour>
      <point x="351" y="7" type="curve"/>
      <point x="351" y="38" type="line"/>
      <point x="333" y="32"/>
      <point x="297" y="27"/>
      <point x="268" y="27" type="curve" smooth="yes"/>
      <point x="166" y="27"/>
      <point x="144" y="73"/>
      <point x="144" y="171" type="curve" smooth="yes"/>
      <point x="144" y="618" type="line"/>
      <point x="115" y="618" type="line"/>
      <point x="108" y="490" type="line"/>
      <point x="108" y="170" type="line" smooth="yes"/>
      <point x="108" y="51"/>
      <point x="137" y="-7"/>
      <point x="261" y="-7" type="curve" smooth="yes"/>
      <point x="300" y="-7"/>
      <point x="332" y="0"/>
    </contour>
    <contour>
      <point x="23" y="462" type="line"/>
      <point x="345" y="462" type="line"/>
      <point x="345" y="494" type="line"/>
      <point x="23" y="494" type="line"/>
    </contour>
    <contour>
      <point x="229" y="716" type="move" name="caronalt"/>
    </contour>
    <contour>
      <point x="237" y="0" type="move" name="bottom"/>
    </contour>
  </outline>
</glyph>
<glyph name="u" format="1">
  <advance width="539"/>
  <unicode hex="0075"/>
  <outline>
    <contour>
      <point x="68" y="156" type="line" smooth="yes"/>
      <point x="68" y="46"/>
      <point x="124" y="-7"/>
      <point x="231" y="-7" type="curve" smooth="yes"/>
      <point x="297" y="-7"/>
      <point x="356" y="16"/>
      <point x="423" y="54" type="curve"/>
      <point x="423" y="103" type="line"/>
      <point x="373" y="74"/>
      <point x="315" y="51"/>
      <point x="251" y="51" type="curve" smooth="yes"/>
      <point x="167" y="51"/>
      <point x="130" y="86"/>
      <point x="130" y="163" type="curve" smooth="yes"/>
      <point x="130" y="494" type="line"/>
      <point x="68" y="494" type="line"/>
    </contour>
    <contour>
      <point x="467" y="494" type="line"/>
      <point x="405" y="494" type="line"/>
      <point x="405" y="45" type="line"/>
      <point x="408" y="45" type="line"/>
      <point x="411" y="0" type="line"/>
      <point x="467" y="0" type="line"/>
    </contour>
    <contour>
      <point x="269" y="520" type="move" name="top"/>
    </contour>
    <contour>
      <point x="467" y="0" type="move" name="ogonek"/>
    </contour>
  </outline>
</glyph>
<glyph name="w" format="1">
  <advance width="701"/>
  <unicode hex="0077"/>
  <outline>
    <contour>
      <point x="678" y="494" type="line"/>
      <point x="611" y="494" type="line"/>
      <point x="503" y="60" type="line"/>
      <point x="378" y="494" type="line"/>
      <point x="313" y="494" type="line"/>
      <point x="198" y="60" type="line"/>
      <point x="90" y="494" type="line"/>
      <point x="22" y="494" type="line"/>
      <point x="160" y="0" type="line"/>
      <point x="234" y="0" type="line"/>
      <point x="346" y="414" type="line"/>
      <point x="467" y="0" type="line"/>
      <point x="540" y="0" type="line"/>
    </contour>
    <contour>
      <point x="345" y="520" type="move" name="top"/>
    </contour>
  </outline>
</glyph>
<glyph name="x" format="1">
  <advance width="441"/>
  <unicode hex="0078"/>
  <outline>
    <contour>
      <point x="426" y="0" type="line"/>
      <point x="257" y="257" type="line"/>
      <point x="417" y="494" type="line"/>
      <point x="350" y="494" type="line"/>
      <point x="222" y="298" type="line"/>
      <point x="98" y="494" type="line"/>
      <point x="24" y="494" type="line"/>
      <point x="184" y="256" type="line"/>
      <point x="15" y="0" type="line"/>
      <point x="81" y="0" type="line"/>
      <point x="218" y="214" type="line"/>
      <point x="356" y="0" type="line"/>
    </contour>
    <contour>
      <point x="223" y="520" type="move" name="top"/>
    </contour>
  </outline>
</glyph>
<glyph name="z" format="1">
  <advance width="426"/>
  <unicode hex="007A"/>
  <outline>
    <contour>
      <point x="398" y="0" type="line"/>
      <point x="398" y="55" type="line"/>
      <point x="102" y="55" type="line"/>
      <point x="381" y="440" type="line"/>
      <point x="381" y="494" type="line"/>
      <point x="49" y="494" type="line"/>
      <point x="49" y="440" type="line"/>
      <point x="311" y="440" type="line"/>
      <point x="31" y="55" type="line"/>
      <point x="31" y="0" type="line"/>
    </contour>
    <contour>
      <point x="215" y="520" type="move" name="top"/>
    </contour>
  </outline>
</glyph>
<glyph name="braceleft" format="1">
  <advance width="292"/>
  <unicode hex="007B"/>
  <outline>
    <contour>
      <point x="83" y="318" type="line"/>
      <point x="125" y="326"/>
      <point x="166" y="371"/>
      <point x="166" y="473" type="curve" smooth="yes"/>
      <point x="166" y="578" type="line"/>
      <point x="166" y="638"/>
      <point x="194" y="670"/>
      <point x="268" y="670" type="curve"/>
      <point x="268" y="718" type="line"/>
      <point x="166" y="718"/>
      <point x="113" y="667"/>
      <point x="113" y="579" type="curve"/>
      <point x="113" y="473" type="line" smooth="yes"/>
      <point x="113" y="367"/>
      <point x="60" y="337"/>
      <point x="27" y="337" type="curve"/>
      <point x="15" y="337" type="line"/>
      <point x="15" y="293" type="line"/>
      <point x="27" y="293" type="line"/>
      <point x="60" y="293"/>
      <point x="113" y="263"/>
      <point x="113" y="157" type="curve" smooth="yes"/>
      <point x="113" y="47" type="line"/>
      <point x="113" y="-41"/>
      <point x="166" y="-92"/>
      <point x="268" y="-92" type="curve"/>
      <point x="268" y="-44" type="line"/>
      <point x="195" y="-44"/>
      <point x="166" y="-12"/>
      <point x="166" y="48" type="curve"/>
      <point x="166" y="157" type="line"/>
      <point x="166" y="259"/>
      <point x="125" y="306"/>
      <point x="83" y="314" type="curve"/>
    </contour>
  </outline>
</glyph>
<glyph name="sterling" format="1">
  <advance width="499"/>
  <unicode hex="00A3"/>
  <outline>
    <contour>
      <point x="464" y="0" type="line"/>
      <point x="464" y="61" type="line"/>
      <point x="107" y="61" type="line"/>
      <point x="107" y="64" type="line"/>
      <point x="157" y="90"/>
      <point x="184" y="133"/>
      <point x="184" y="216" type="curve"/>
      <point x="184" y="447" type="line" smooth="yes"/>
      <point x="184" y="538"/>
      <point x="223" y="578"/>
      <point x="313" y="578" type="curve" smooth="yes"/>
      <point x="367" y="578"/>
      <point x="409" y="571"/>
      <point x="448" y="562" type="curve"/>
      <point x="448" y="619" type="line"/>
      <point x="410" y="628"/>
      <point x="368" y="637"/>
      <point x="305" y="637" type="curve" smooth="yes"/>
      <point x="193" y="637"/>
      <point x="119" y="588"/>
      <point x="119" y="455" type="curve" smooth="yes"/>
      <point x="119" y="216" type="line"/>
      <point x="119" y="144"/>
      <point x="95" y="94"/>
      <point x="38" y="62" type="curve"/>
      <point x="38" y="0" type="line"/>
    </contour>
    <contour>
      <point x="38" y="329" type="line"/>
      <point x="38" y="273" type="line"/>
      <point x="414" y="273" type="line"/>
      <point x="414" y="329" type="line"/>
    </contour>
  </outline>
</glyph>
<glyph name="currency" format="1">
  <advance width="661"/>
  <unicode hex="00A4"/>
  <outline>
    <contour>
      <point x="594" y="557" type="line"/>
      <point x="570" y="582" type="line"/>
      <point x="489" y="500" type="line"/>
      <point x="513" y="477" type="line"/>
    </contour>
    <contour>
      <point x="573" y="51" type="line"/>
      <point x="596" y="75" type="line"/>
      <point x="516" y="155" type="line"/>
      <point x="492" y="132" type="line"/>
    </contour>
    <contour>
      <point x="65" y="73" type="line"/>
      <point x="88" y="49" type="line"/>
      <point x="170" y="131" type="line"/>
      <point x="146" y="154" type="line"/>
    </contour>
    <contour>
      <point x="90" y="582" type="line"/>
      <point x="66" y="558" type="line"/>
      <point x="147" y="477" type="line"/>
      <point x="170" y="501" type="line"/>
    </contour>
    <contour>
      <point x="328" y="575" type="curve" smooth="yes"/>
      <point x="179" y="575"/>
      <point x="69" y="465"/>
      <point x="69" y="316" type="curve" smooth="yes"/>
      <point x="69" y="167"/>
      <point x="180" y="56"/>
      <point x="330" y="56" type="curve" smooth="yes"/>
      <point x="479" y="56"/>
      <point x="591" y="166"/>
      <point x="591" y="315" type="curve" smooth="yes"/>
      <point x="591" y="464"/>
      <point x="479" y="575"/>
    </contour>
    <contour>
      <point x="104" y="316" type="curve" smooth="yes"/>
      <point x="104" y="446"/>
      <point x="201" y="542"/>
      <point x="328" y="542" type="curve" smooth="yes"/>
      <point x="460" y="542"/>
      <point x="557" y="446"/>
      <point x="557" y="316" type="curve" smooth="yes"/>
      <point x="557" y="185"/>
      <point x="460" y="89"/>
      <point x="330" y="89" type="curve" smooth="yes"/>
      <point x="202" y="89"/>
      <point x="104" y="185"/>
    </contour>
  </outline>
</glyph>
<glyph name="yen" format="1">
  <advance width="555"/>
  <unicode hex="00A5"/>
  <outline>
    <contour>
      <point x="65" y="277" type="line"/>
      <point x="65" y="246" type="line"/>
      <point x="492" y="246" type="line"/>
      <point x="492" y="277" type="line"/>
    </contour>
    <contour>
      <point x="65" y="149" type="line"/>
      <point x="65" y="118" type="line"/>
      <point x="492" y="118" type="line"/>
      <point x="492" y="149" type="line"/>
    </contour>
    <contour>
      <point x="517" y="627" type="line"/>
      <point x="477" y="627" type="line"/>
      <point x="279" y="289" type="line"/>
      <point x="76" y="627" type="line"/>
      <point x="34" y="627" type="line"/>
      <point x="260" y="254" type="line"/>
      <point x="260" y="0" type="line"/>
      <point x="297" y="0" type="line"/>
      <point x="297" y="254" type="line"/>
    </contour>
  </outline>
</glyph>
<glyph name="section" format="1">
  <advance width="483"/>
  <unicode hex="00A7"/>
  <outline>
    <contour>
      <point x="124" y="461" type="line"/>
      <point x="67" y="430"/>
      <point x="34" y="381"/>
      <point x="34" y="328" type="curve"/>
      <point x="34" y="273"/>
      <point x="62" y="246"/>
      <point x="117" y="225" type="curve" smooth="yes"/>
      <point x="286" y="162" type="line" smooth="yes"/>
      <point x="334" y="145"/>
      <point x="353" y="130"/>
      <point x="353" y="100" type="curve"/>
      <point x="353" y="53"/>
      <point x="309" y="39"/>
      <point x="231" y="39" type="curve"/>
      <point x="172" y="38"/>
      <point x="120" y="48"/>
      <point x="82" y="60" type="curve"/>
      <point x="82" y="10" type="line"/>
      <point x="116" y="0"/>
      <point x="166" y="-10"/>
      <point x="241" y="-10" type="curve"/>
      <point x="357" y="-10"/>
      <point x="412" y="29"/>
      <point x="412" y="102" type="curve"/>
      <point x="412" y="151"/>
      <point x="388" y="178"/>
      <point x="325" y="202" type="curve" smooth="yes"/>
      <point x="145" y="270" type="line" smooth="yes"/>
      <point x="104" y="285"/>
      <point x="88" y="300"/>
      <point x="88" y="339" type="curve"/>
      <point x="88" y="379"/>
      <point x="120" y="413"/>
      <point x="164" y="437" type="curve"/>
    </contour>
    <contour>
      <point x="251" y="588" type="curve"/>
      <point x="310" y="589"/>
      <point x="362" y="580"/>
      <point x="400" y="568" type="curve"/>
      <point x="400" y="618" type="line"/>
      <point x="366" y="628"/>
      <point x="316" y="637"/>
      <point x="241" y="637" type="curve"/>
      <point x="125" y="637"/>
      <point x="71" y="596"/>
      <point x="71" y="525" type="curve"/>
      <point x="71" y="476"/>
      <point x="95" y="449"/>
      <point x="157" y="426" type="curve" smooth="yes"/>
      <point x="337" y="357" type="line" smooth="yes"/>
      <point x="379" y="342"/>
      <point x="394" y="328"/>
      <point x="394" y="288" type="curve"/>
      <point x="394" y="248"/>
      <point x="362" y="214"/>
      <point x="319" y="190" type="curve"/>
      <point x="358" y="166" type="line"/>
      <point x="415" y="197"/>
      <point x="449" y="246"/>
      <point x="449" y="299" type="curve"/>
      <point x="449" y="352"/>
      <point x="422" y="379"/>
      <point x="371" y="398" type="curve" smooth="yes"/>
      <point x="196" y="465" type="line" smooth="yes"/>
      <point x="149" y="482"/>
      <point x="129" y="497"/>
      <point x="129" y="527" type="curve"/>
      <point x="129" y="574"/>
      <point x="174" y="588"/>
    </contour>
  </outline>
</glyph>
<glyph name="dieresis" format="1">
  <advance width="339"/>
  <unicode hex="00A8"/>
  <outline>
    <contour>
      <point x="289" y="566" type="line"/>
      <point x="289" y="629" type="line"/>
      <point x="225" y="629" type="line"/>
      <point x="225" y="566" type="line"/>
    </contour>
    <contour>
      <point x="115" y="566" type="line"/>
      <point x="115" y="629" type="line"/>
      <point x="50" y="629" type="line"/>
      <point x="50" y="566" type="line"/>
    </contour>
    <contour>
      <point x="170" y="530" type="move" name="_top"/>
    </contour>
  </outline>
</glyph>
<glyph name="copyright" format="1">
  <advance width="727"/>
  <unicode hex="00A9"/>
  <outline>
    <contour>
      <point x="365" y="-10" type="curve"/>
      <point x="568" y="-10"/>
      <point x="670" y="98"/>
      <point x="670" y="314" type="curve"/>
      <point x="670" y="530"/>
      <point x="569" y="637"/>
      <point x="365" y="637" type="curve"/>
      <point x="159" y="637"/>
      <point x="57" y="529"/>
      <point x="57" y="314" type="curve"/>
      <point x="57" y="97"/>
      <point x="158" y="-10"/>
    </contour>
    <contour>
      <point x="365" y="608" type="curve"/>
      <point x="550" y="608"/>
      <point x="641" y="511"/>
      <point x="641" y="314" type="curve"/>
      <point x="641" y="116"/>
      <point x="550" y="20"/>
      <point x="365" y="20" type="curve"/>
      <point x="178" y="20"/>
      <point x="87" y="116"/>
      <point x="87" y="314" type="curve"/>
      <point x="87" y="511"/>
      <point x="178" y="608"/>
    </contour>
    <contour>
      <point x="476" y="188" type="line"/>
      <point x="447" y="175"/>
      <point x="414" y="168"/>
      <point x="380" y="168" type="curve"/>
      <point x="275" y="168"/>
      <point x="237" y="202"/>
      <point x="237" y="316" type="curve" smooth="yes"/>
      <point x="237" y="424"/>
      <point x="282" y="464"/>
      <point x="382" y="464" type="curve"/>
      <point x="416" y="464"/>
      <point x="440" y="461"/>
      <point x="467" y="454" type="curve"/>
      <point x="467" y="484" type="line"/>
      <point x="441" y="490"/>
      <point x="416" y="494"/>
      <point x="382" y="494" type="curve"/>
      <point x="267" y="494"/>
      <point x="202" y="446"/>
      <point x="202" y="316" type="curve" smooth="yes"/>
      <point x="202" y="181"/>
      <point x="251" y="137"/>
      <point x="373" y="137" type="curve"/>
      <point x="420" y="137"/>
      <point x="456" y="147"/>
      <point x="476" y="158" type="curve"/>
    </contour>
  </outline>
</glyph>
<glyph name="ordfeminine" format="1">
  <advance width="356"/>
  <unicode hex="00AA"/>
  <outline>
    <contour>
      <point x="58" y="262" type="line"/>
      <point x="293" y="262" type="line"/>
      <point x="293" y="302" type="line"/>
      <point x="58" y="302" type="line"/>
    </contour>
    <contour>
      <point x="57" y="436" type="curve"/>
      <point x="57" y="378"/>
      <point x="85" y="350"/>
      <point x="145" y="350" type="curve"/>
      <point x="182" y="350"/>
      <point x="220" y="364"/>
      <point x="250" y="386" type="curve"/>
      <point x="250" y="418" type="line"/>
      <point x="235" y="405"/>
      <point x="195" y="389"/>
      <point x="157" y="389" type="curve"/>
      <point x="117" y="389"/>
      <point x="100" y="404"/>
      <point x="100" y="438" type="curve"/>
      <point x="100" y="472"/>
      <point x="120" y="483"/>
      <point x="172" y="483" type="curve"/>
      <point x="208" y="483"/>
      <point x="234" y="480"/>
      <point x="253" y="476" type="curve"/>
      <point x="253" y="509" type="line"/>
      <point x="237" y="513"/>
      <point x="206" y="517"/>
      <point x="168" y="517" type="curve"/>
      <point x="91" y="517"/>
      <point x="57" y="496"/>
    </contour>
    <contour>
      <point x="249" y="355" type="line"/>
      <point x="290" y="355" type="line"/>
      <point x="290" y="542" type="line" smooth="yes"/>
      <point x="290" y="598"/>
      <point x="265" y="637"/>
      <point x="184" y="637" type="curve"/>
      <point x="141" y="637"/>
      <point x="114" y="634"/>
      <point x="85" y="627" type="curve"/>
      <point x="85" y="588" type="line"/>
      <point x="108" y="593"/>
      <point x="131" y="596"/>
      <point x="172" y="596" type="curve" smooth="yes"/>
      <point x="236" y="596"/>
      <point x="246" y="568"/>
      <point x="246" y="536" type="curve" smooth="yes"/>
      <point x="246" y="383" type="line"/>
      <point x="248" y="383" type="line"/>
    </contour>
  </outline>
</glyph>
<glyph name="guillemotleft" format="1">
  <advance width="472"/>
  <unicode hex="00AB"/>
  <outline>
    <contour>
      <point x="235" y="494" type="line"/>
      <point x="176" y="494" type="line"/>
      <point x="27" y="281" type="line"/>
      <point x="75" y="264" type="line"/>
    </contour>
    <contour>
      <point x="176" y="64" type="line"/>
      <point x="235" y="64" type="line"/>
      <point x="75" y="299" type="line"/>
      <point x="27" y="281" type="line"/>
    </contour>
    <contour>
      <point x="438" y="494" type="line"/>
      <point x="378" y="494" type="line"/>
      <point x="229" y="281" type="line"/>
      <point x="278" y="264" type="line"/>
    </contour>
    <contour>
      <point x="378" y="64" type="line"/>
      <point x="438" y="64" type="line"/>
      <point x="278" y="299" type="line"/>
      <point x="229" y="281" type="line"/>
    </contour>
  </outline>
</glyph>
<glyph name="registered" format="1">
  <advance width="462"/>
  <unicode hex="00AE"/>
  <outline>
    <contour>
      <point x="232" y="270" type="curve"/>
      <point x="351" y="270"/>
      <point x="409" y="330"/>
      <point x="409" y="454" type="curve"/>
      <point x="409" y="578"/>
      <point x="351" y="637"/>
      <point x="232" y="637" type="curve"/>
      <point x="113" y="637"/>
      <point x="54" y="577"/>
      <point x="54" y="454" type="curve"/>
      <point x="54" y="329"/>
      <point x="112" y="270"/>
    </contour>
    <contour>
      <point x="232" y="612" type="curve"/>
      <point x="334" y="612"/>
      <point x="382" y="561"/>
      <point x="382" y="454" type="curve"/>
      <point x="382" y="346"/>
      <point x="334" y="296"/>
      <point x="232" y="296" type="curve"/>
      <point x="130" y="296"/>
      <point x="82" y="346"/>
      <point x="82" y="454" type="curve"/>
      <point x="82" y="561"/>
      <point x="130" y="612"/>
    </contour>
    <contour>
      <point x="233" y="427" type="line" smooth="yes"/>
      <point x="281" y="427"/>
      <point x="311" y="444"/>
      <point x="311" y="493" type="curve"/>
      <point x="311" y="543"/>
      <point x="281" y="556"/>
      <point x="232" y="556" type="curve" smooth="yes"/>
      <point x="181" y="556" type="line"/>
      <point x="181" y="532" type="line"/>
      <point x="232" y="532" type="line" smooth="yes"/>
      <point x="264" y="532"/>
      <point x="285" y="523"/>
      <point x="285" y="493" type="curve"/>
      <point x="285" y="460"/>
      <point x="264" y="449"/>
      <point x="232" y="449" type="curve" smooth="yes"/>
      <point x="181" y="449" type="line"/>
      <point x="181" y="427" type="line"/>
    </contour>
    <contour>
      <point x="189" y="354" type="line"/>
      <point x="189" y="556" type="line"/>
      <point x="164" y="556" type="line"/>
      <point x="164" y="354" type="line"/>
    </contour>
    <contour>
      <point x="232" y="433" type="line"/>
      <point x="284" y="354" type="line"/>
      <point x="316" y="354" type="line"/>
      <point x="262" y="433" type="line"/>
    </contour>
  </outline>
</glyph>
<glyph name="plusminus" format="1">
  <advance width="500"/>
  <unicode hex="00B1"/>
  <outline>
    <contour>
      <point x="463" y="394" type="line"/>
      <point x="463" y="428" type="line"/>
      <point x="37" y="428" type="line"/>
      <point x="37" y="394" type="line"/>
    </contour>
    <contour>
      <point x="268" y="601" type="line"/>
      <point x="232" y="601" type="line"/>
      <point x="232" y="219" type="line"/>
      <point x="268" y="219" type="line"/>
    </contour>
    <component base="minus" yOffset="-222"/>
  </outline>
</glyph>
<glyph name="cedilla" format="1">
  <advance width="323"/>
  <unicode hex="00B8"/>
  <outline>
    <contour>
      <point x="277" y="-117" type="curve"/>
      <point x="277" y="-69"/>
      <point x="236" y="-47"/>
      <point x="160" y="-51" type="curve"/>
      <point x="173" y="9" type="line"/>
      <point x="123" y="13" type="line"/>
      <point x="103" y="-84" type="line"/>
      <point x="121" y="-83"/>
      <point x="136" y="-82"/>
      <point x="152" y="-82" type="curve"/>
      <point x="191" y="-82"/>
      <point x="221" y="-88"/>
      <point x="221" y="-116" type="curve"/>
      <point x="221" y="-142"/>
      <point x="209" y="-154"/>
      <point x="160" y="-154" type="curve" smooth="yes"/>
      <point x="115" y="-154"/>
      <point x="77" y="-148"/>
      <point x="60" y="-142" type="curve"/>
      <point x="60" y="-183" type="line"/>
      <point x="74" y="-188"/>
      <point x="111" y="-195"/>
      <point x="168" y="-195" type="curve" smooth="yes"/>
      <point x="241" y="-195"/>
      <point x="277" y="-174"/>
    </contour>
    <contour>
      <point x="150" y="0" type="move" name="_bottom"/>
    </contour>
  </outline>
</glyph>
<glyph name="AE" format="1">
  <advance width="744"/>
  <unicode hex="00C6"/>
  <outline>
    <contour>
      <point x="19" y="0" type="line"/>
      <point x="59" y="0" type="line"/>
      <point x="239" y="456" type="line" smooth="yes"/>
      <point x="259" y="509"/>
      <point x="280" y="567"/>
      <point x="297" y="627" type="curve"/>
      <point x="268" y="627" type="line"/>
    </contour>
    <contour>
      <point x="553" y="0" type="line"/>
      <point x="307" y="627" type="line"/>
      <point x="276" y="627" type="line"/>
      <point x="293" y="567"/>
      <point x="314" y="509"/>
      <point x="334" y="456" type="curve" smooth="yes"/>
      <point x="514" y="0" type="line"/>
    </contour>
    <contour>
      <point x="116" y="182" type="line"/>
      <point x="456" y="182" type="line"/>
      <point x="456" y="216" type="line"/>
      <point x="116" y="216" type="line"/>
    </contour>
    <contour>
      <point x="301" y="592" type="line"/>
      <point x="694" y="592" type="line"/>
      <point x="694" y="627" type="line"/>
      <point x="301" y="627" type="line"/>
    </contour>
    <contour>
      <point x="407" y="306" type="line"/>
      <point x="657" y="306" type="line"/>
      <point x="657" y="340" type="line"/>
      <point x="407" y="340" type="line"/>
    </contour>
    <contour>
      <point x="533" y="0" type="line"/>
      <point x="703" y="0" type="line"/>
      <point x="703" y="35" type="line"/>
      <point x="533" y="35" type="line"/>
    </contour>
    <contour>
      <point x="477" y="645" type="move" name="top"/>
    </contour>
  </outline>
</glyph>
<glyph name="multiply" format="1">
  <advance width="500"/>
  <unicode hex="00D7"/>
  <outline>
    <contour>
      <point x="456" y="486" type="line"/>
      <point x="414" y="528" type="line"/>
      <point x="44" y="158" type="line"/>
      <point x="86" y="116" type="line"/>
    </contour>
    <contour>
      <point x="89" y="526" type="line"/>
      <point x="47" y="484" type="line"/>
      <point x="414" y="117" type="line"/>
      <point x="456" y="159" type="line"/>
    </contour>
  </outline>
</glyph>
<glyph name="Oslash" format="1">
  <advance width="659"/>
  <unicode hex="00D8"/>
  <outline>
    <contour>
      <point x="63" y="-30" type="line"/>
      <point x="88" y="-46" type="line"/>
      <point x="158" y="55" type="line"/>
      <point x="134" y="73" type="line"/>
    </contour>
    <contour>
      <point x="512" y="569" type="line"/>
      <point x="584" y="672" type="line"/>
      <point x="559" y="688" type="line"/>
      <point x="490" y="588" type="line"/>
    </contour>
    <contour>
      <point x="158" y="55" type="line"/>
      <point x="512" y="569" type="line"/>
      <point x="490" y="588" type="line"/>
      <point x="134" y="73" type="line"/>
    </contour>
    <component base="O"/>
    <contour>
      <point x="330.0" y="655.0" type="move" name="top"/>
    </contour>
  </outline>
</glyph>
<glyph name="Thorn" format="1">
  <advance width="579"/>
  <unicode hex="00DE"/>
  <outline>
    <contour>
      <point x="293" y="115" type="line" smooth="yes"/>
      <point x="443" y="115"/>
      <point x="526" y="176"/>
      <point x="526" y="324" type="curve"/>
      <point x="526" y="464"/>
      <point x="454" y="520"/>
      <point x="290" y="520" type="curve" smooth="yes"/>
      <point x="109" y="520" type="line"/>
      <point x="109" y="485" type="line"/>
      <point x="290" y="485" type="line" smooth="yes"/>
      <point x="427" y="485"/>
      <point x="488" y="441"/>
      <point x="488" y="324" type="curve"/>
      <point x="488" y="196"/>
      <point x="418" y="148"/>
      <point x="290" y="148" type="curve" smooth="yes"/>
      <point x="109" y="148" type="line"/>
      <point x="109" y="115" type="line"/>
    </contour>
    <contour>
      <point x="125" y="0" type="line"/>
      <point x="125" y="627" type="line"/>
      <point x="88" y="627" type="line"/>
      <point x="88" y="0" type="line"/>
    </contour>
  </outline>
</glyph>
<glyph name="germandbls" format="1">
  <advance width="587"/>
  <unicode hex="00DF"/>
  <outline>
    <contour>
      <point x="266" y="677" type="curve"/>
      <point x="125" y="677"/>
      <point x="72" y="616"/>
      <point x="72" y="491" type="curve" smooth="yes"/>
      <point x="72" y="0" type="line"/>
      <point x="134" y="0" type="line"/>
      <point x="134" y="490" type="line" smooth="yes"/>
      <point x="134" y="581"/>
      <point x="164" y="621"/>
      <point x="266" y="621" type="curve"/>
      <point x="348" y="621"/>
      <point x="386" y="594"/>
      <point x="386" y="530" type="curve" smooth="yes"/>
      <point x="386" y="503"/>
      <point x="379" y="477"/>
      <point x="370" y="448" type="curve" smooth="yes"/>
      <point x="329" y="299" type="line"/>
      <point x="425" y="270" type="line" smooth="yes"/>
      <point x="466" y="257"/>
      <point x="485" y="238"/>
      <point x="485" y="175" type="curve" smooth="yes"/>
      <point x="485" y="72"/>
      <point x="441" y="48"/>
      <point x="366" y="48" type="curve" smooth="yes"/>
      <point x="311" y="48"/>
      <point x="279" y="54"/>
      <point x="256" y="60" type="curve"/>
      <point x="256" y="3" type="line"/>
      <point x="284" y="-5"/>
      <point x="325" y="-10"/>
      <point x="373" y="-10" type="curve" smooth="yes"/>
      <point x="474" y="-10"/>
      <point x="544" y="29"/>
      <point x="544" y="175" type="curve" smooth="yes"/>
      <point x="544" y="270"/>
      <point x="514" y="299"/>
      <point x="456" y="318" type="curve" smooth="yes"/>
      <point x="397" y="337" type="line"/>
      <point x="430" y="445" type="line" smooth="yes"/>
      <point x="440" y="477"/>
      <point x="448" y="511"/>
      <point x="448" y="542" type="curve" smooth="yes"/>
      <point x="448" y="625"/>
      <point x="403" y="677"/>
    </contour>
  </outline>
</glyph>
<glyph name="ae" format="1">
  <advance width="777"/>
  <unicode hex="00E6"/>
  <outline>
    <contour>
      <point x="549" y="448" type="curve"/>
      <point x="643" y="448"/>
      <point x="673" y="401"/>
      <point x="674" y="307" type="curve"/>
      <point x="674" y="296"/>
      <point x="674" y="286"/>
      <point x="673" y="279" type="curve"/>
      <point x="407" y="279" type="line"/>
      <point x="407" y="400"/>
      <point x="446" y="448"/>
    </contour>
    <contour>
      <point x="710" y="27" type="curve"/>
      <point x="710" y="80" type="line"/>
      <point x="684" y="68"/>
      <point x="621" y="50"/>
      <point x="558" y="50" type="curve" smooth="yes"/>
      <point x="458" y="50"/>
      <point x="408" y="90"/>
      <point x="407" y="228" type="curve"/>
      <point x="727" y="228" type="line"/>
      <point x="730" y="250"/>
      <point x="731" y="271"/>
      <point x="731" y="299" type="curve"/>
      <point x="731" y="444"/>
      <point x="677" y="504"/>
      <point x="549" y="504" type="curve"/>
      <point x="411" y="504"/>
      <point x="347" y="421"/>
      <point x="347" y="251" type="curve" smooth="yes"/>
      <point x="347" y="63"/>
      <point x="407" y="-7"/>
      <point x="548" y="-7" type="curve" smooth="yes"/>
      <point x="621" y="-7"/>
      <point x="686" y="14"/>
    </contour>
    <contour>
      <point x="36" y="139" type="curve"/>
      <point x="36" y="40"/>
      <point x="81" y="-7"/>
      <point x="183" y="-7" type="curve"/>
      <point x="276" y="-7"/>
      <point x="345" y="30"/>
      <point x="389" y="72" type="curve"/>
      <point x="375" y="119" type="line"/>
      <point x="339" y="84"/>
      <point x="276" y="49"/>
      <point x="200" y="49" type="curve"/>
      <point x="125" y="49"/>
      <point x="95" y="77"/>
      <point x="95" y="142" type="curve"/>
      <point x="95" y="208"/>
      <point x="129" y="228"/>
      <point x="223" y="228" type="curve" smooth="yes"/>
      <point x="359" y="228" type="line"/>
      <point x="359" y="279" type="line"/>
      <point x="220" y="279" type="line" smooth="yes"/>
      <point x="89" y="279"/>
      <point x="36" y="243"/>
    </contour>
    <contour>
      <point x="398" y="333" type="line"/>
      <point x="398" y="445"/>
      <point x="360" y="504"/>
      <point x="247" y="504" type="curve" smooth="yes"/>
      <point x="176" y="504"/>
      <point x="134" y="498"/>
      <point x="86" y="486" type="curve"/>
      <point x="86" y="431" type="line"/>
      <point x="125" y="441"/>
      <point x="164" y="448"/>
      <point x="229" y="448" type="curve" smooth="yes"/>
      <point x="322" y="448"/>
      <point x="347" y="403"/>
      <point x="347" y="327" type="curve" smooth="yes"/>
      <point x="347" y="242" type="line"/>
    </contour>
    <contour>
      <point x="388" y="530" type="move" name="top"/>
    </contour>
  </outline>
</glyph>
<glyph name="eth" format="1">
  <advance width="552"/>
  <unicode hex="00F0"/>
  <outline>
    <contour>
      <point x="482" y="605" type="line"/>
      <point x="482" y="645" type="line"/>
      <point x="164" y="571" type="line"/>
      <point x="164" y="531" type="line"/>
    </contour>
    <contour>
      <point x="274" y="-7" type="curve" smooth="yes"/>
      <point x="438" y="-7"/>
      <point x="497" y="60"/>
      <point x="497" y="244" type="curve" smooth="yes"/>
      <point x="497" y="435"/>
      <point x="430" y="495"/>
      <point x="274" y="495" type="curve" smooth="yes"/>
      <point x="109" y="495"/>
      <point x="49" y="428"/>
      <point x="49" y="244" type="curve" smooth="yes"/>
      <point x="49" y="52"/>
      <point x="103" y="-7"/>
    </contour>
    <contour>
      <point x="274" y="50" type="curve" smooth="yes"/>
      <point x="143" y="50"/>
      <point x="111" y="88"/>
      <point x="111" y="244" type="curve" smooth="yes"/>
      <point x="111" y="395"/>
      <point x="148" y="438"/>
      <point x="274" y="438" type="curve" smooth="yes"/>
      <point x="403" y="438"/>
      <point x="435" y="401"/>
      <point x="435" y="244" type="curve" smooth="yes"/>
      <point x="435" y="94"/>
      <point x="398" y="50"/>
    </contour>
    <contour>
      <point x="341" y="665" type="curve"/>
      <point x="269" y="665" type="line"/>
      <point x="379" y="562"/>
      <point x="440" y="439"/>
      <point x="436" y="276" type="curve"/>
      <point x="497" y="244" type="line"/>
      <point x="497" y="454"/>
      <point x="445" y="558"/>
    </contour>
  </outline>
</glyph>
<glyph name="thorn" format="1">
  <advance width="542"/>
  <unicode hex="00FE"/>
  <outline>
    <contour>
      <point x="72" y="-152" type="line"/>
      <point x="134" y="-152" type="line"/>
      <point x="134" y="665" type="line"/>
      <point x="72" y="665" type="line"/>
    </contour>
    <contour>
      <point x="123" y="395" type="line"/>
      <point x="164" y="427"/>
      <point x="218" y="448"/>
      <point x="282" y="448" type="curve"/>
      <point x="385" y="448"/>
      <point x="432" y="408"/>
      <point x="432" y="248" type="curve" smooth="yes"/>
      <point x="432" y="88"/>
      <point x="380" y="50"/>
      <point x="255" y="50" type="curve"/>
      <point x="190" y="50"/>
      <point x="151" y="63"/>
      <point x="121" y="79" type="curve"/>
      <point x="104" y="33" type="line"/>
      <point x="136" y="7"/>
      <point x="188" y="-7"/>
      <point x="262" y="-7" type="curve"/>
      <point x="419" y="-7"/>
      <point x="494" y="55"/>
      <point x="494" y="248" type="curve" smooth="yes"/>
      <point x="494" y="441"/>
      <point x="430" y="504"/>
      <point x="303" y="504" type="curve"/>
      <point x="229" y="504"/>
      <point x="160" y="483"/>
      <point x="114" y="434" type="curve"/>
    </contour>
  </outline>
</glyph>
<glyph name="Eng" format="1">
  <advance width="669"/>
  <unicode hex="014A"/>
  <outline>
    <contour>
      <point x="581" y="2" type="curve" smooth="yes"/>
      <point x="581" y="627" type="line"/>
      <point x="545" y="627" type="line"/>
      <point x="545" y="67" type="line"/>
      <point x="132" y="627" type="line"/>
      <point x="88" y="627" type="line"/>
      <point x="88" y="0" type="line"/>
      <point x="124" y="0" type="line"/>
      <point x="124" y="573" type="line"/>
      <point x="545" y="4" type="line"/>
      <point x="544" y="-85"/>
      <point x="512" y="-130"/>
      <point x="427" y="-130" type="curve"/>
      <point x="404" y="-130"/>
      <point x="384" y="-128"/>
      <point x="362" y="-124" type="curve"/>
      <point x="362" y="-157" type="line"/>
      <point x="384" y="-160"/>
      <point x="406" y="-163"/>
      <point x="437" y="-163" type="curve"/>
      <point x="531" y="-163"/>
      <point x="581" y="-107"/>
    </contour>
  </outline>
</glyph>
<glyph name="OE" format="1">
  <advance width="899"/>
  <unicode hex="0152"/>
  <outline>
    <contour>
      <point x="316" y="-7" type="curve"/>
      <point x="496" y="-7"/>
      <point x="570" y="80"/>
      <point x="570" y="316" type="curve"/>
      <point x="570" y="572"/>
      <point x="511" y="637"/>
      <point x="316" y="637" type="curve"/>
      <point x="134" y="637"/>
      <point x="61" y="551"/>
      <point x="61" y="316" type="curve"/>
      <point x="61" y="58"/>
      <point x="120" y="-7"/>
    </contour>
    <contour>
      <point x="316" y="29" type="curve"/>
      <point x="143" y="29"/>
      <point x="98" y="78"/>
      <point x="98" y="316" type="curve"/>
      <point x="98" y="534"/>
      <point x="156" y="602"/>
      <point x="316" y="602" type="curve"/>
      <point x="488" y="602"/>
      <point x="532" y="556"/>
      <point x="532" y="316" type="curve"/>
      <point x="532" y="100"/>
      <point x="475" y="29"/>
    </contour>
    <contour>
      <point x="450" y="592" type="line"/>
      <point x="849" y="592" type="line"/>
      <point x="849" y="627" type="line"/>
      <point x="417" y="627" type="line"/>
    </contour>
    <contour>
      <point x="558" y="306" type="line"/>
      <point x="812" y="306" type="line"/>
      <point x="812" y="339" type="line"/>
      <point x="558" y="339" type="line"/>
    </contour>
    <contour>
      <point x="378" y="0" type="line"/>
      <point x="858" y="0" type="line"/>
      <point x="858" y="35" type="line"/>
      <point x="419" y="35" type="line"/>
    </contour>
  </outline>
</glyph>
<glyph name="oe" format="1">
  <advance width="867"/>
  <unicode hex="0153"/>
  <outline>
    <contour>
      <point x="269" y="-7" type="curve" smooth="yes"/>
      <point x="421" y="-7"/>
      <point x="472" y="61"/>
      <point x="472" y="249" type="curve" smooth="yes"/>
      <point x="472" y="447"/>
      <point x="429" y="504"/>
      <point x="269" y="504" type="curve" smooth="yes"/>
      <point x="113" y="504"/>
      <point x="59" y="436"/>
      <point x="59" y="249" type="curve" smooth="yes"/>
      <point x="59" y="51"/>
      <point x="106" y="-7"/>
    </contour>
    <contour>
      <point x="269" y="27" type="curve" smooth="yes"/>
      <point x="130" y="27"/>
      <point x="95" y="72"/>
      <point x="95" y="249" type="curve" smooth="yes"/>
      <point x="95" y="419"/>
      <point x="136" y="471"/>
      <point x="269" y="471" type="curve" smooth="yes"/>
      <point x="407" y="471"/>
      <point x="443" y="426"/>
      <point x="443" y="249" type="curve" smooth="yes"/>
      <point x="443" y="79"/>
      <point x="401" y="27"/>
    </contour>
    <contour>
      <point x="640" y="471" type="curve"/>
      <point x="747" y="471"/>
      <point x="782" y="412"/>
      <point x="782" y="304" type="curve"/>
      <point x="782" y="290"/>
      <point x="781" y="279"/>
      <point x="780" y="271" type="curve"/>
      <point x="479" y="271" type="line"/>
      <point x="479" y="412"/>
      <point x="524" y="471"/>
    </contour>
    <contour>
      <point x="795" y="27" type="curve"/>
      <point x="795" y="60" type="line"/>
      <point x="767" y="46"/>
      <point x="707" y="27"/>
      <point x="647" y="27" type="curve" smooth="yes"/>
      <point x="536" y="27"/>
      <point x="479" y="74"/>
      <point x="479" y="239" type="curve"/>
      <point x="812" y="239" type="line"/>
      <point x="814" y="258"/>
      <point x="816" y="278"/>
      <point x="816" y="301" type="curve"/>
      <point x="816" y="444"/>
      <point x="763" y="504"/>
      <point x="640" y="504" type="curve"/>
      <point x="507" y="504"/>
      <point x="448" y="434"/>
      <point x="448" y="251" type="curve" smooth="yes"/>
      <point x="448" y="62"/>
      <point x="505" y="-7"/>
      <point x="641" y="-7" type="curve" smooth="yes"/>
      <point x="710" y="-7"/>
      <point x="771" y="14"/>
    </contour>
  </outline>
</glyph>
<glyph name="uni018F" format="1">
  <advance width="602"/>
  <unicode hex="018F"/>
  <outline>
    <contour>
      <point x="550" y="314" type="curve" smooth="yes"/>
      <point x="550" y="544"/>
      <point x="476" y="637"/>
      <point x="268" y="637" type="curve"/>
      <point x="193" y="637"/>
      <point x="138" y="625"/>
      <point x="102" y="613" type="curve"/>
      <point x="102" y="555" type="line"/>
      <point x="147" y="569"/>
      <point x="196" y="578"/>
      <point x="262" y="578" type="curve" smooth="yes"/>
      <point x="428" y="578"/>
      <point x="485" y="511"/>
      <point x="485" y="313" type="curve" smooth="yes"/>
      <point x="485" y="115"/>
      <point x="429" y="51"/>
      <point x="289" y="51" type="curve"/>
      <point x="168" y="51"/>
      <point x="107" y="109"/>
      <point x="107" y="234" type="curve"/>
      <point x="107" y="259"/>
      <point x="108" y="274"/>
      <point x="109" y="289" type="curve"/>
      <point x="507" y="289" type="line"/>
      <point x="507" y="346" type="line"/>
      <point x="49" y="346" type="line"/>
      <point x="46" y="317"/>
      <point x="43" y="288"/>
      <point x="43" y="241" type="curve"/>
      <point x="43" y="72"/>
      <point x="125" y="-7"/>
      <point x="287" y="-7" type="curve"/>
      <point x="463" y="-7"/>
      <point x="550" y="73"/>
    </contour>
  </outline>
</glyph>
<glyph name="florin" format="1">
  <advance width="409"/>
  <unicode hex="0192"/>
  <outline>
    <contour>
      <point x="384" y="628" type="line"/>
      <point x="369" y="631"/>
      <point x="344" y="635"/>
      <point x="306" y="635" type="curve"/>
      <point x="187" y="635"/>
      <point x="163" y="579"/>
      <point x="147" y="477" type="curve" smooth="yes"/>
      <point x="47" y="-152" type="line"/>
      <point x="84" y="-152" type="line"/>
      <point x="184" y="473" type="line" smooth="yes"/>
      <point x="198" y="560"/>
      <point x="212" y="601"/>
      <point x="305" y="601" type="curve"/>
      <point x="339" y="601"/>
      <point x="369" y="598"/>
      <point x="384" y="594" type="curve"/>
    </contour>
    <contour>
      <point x="44" y="326" type="line"/>
      <point x="359" y="326" type="line"/>
      <point x="359" y="359" type="line"/>
      <point x="44" y="359" type="line"/>
    </contour>
  </outline>
</glyph>
<glyph name="uni01B5" format="1">
  <advance width="526"/>
  <unicode hex="01B5"/>
  <outline>
    <contour>
      <point x="470" y="310" type="line"/>
      <point x="470" y="340" type="line"/>
      <point x="61" y="340" type="line"/>
      <point x="61" y="310" type="line"/>
    </contour>
    <component base="Z" xOffset="10"/>
  </outline>
</glyph>
<glyph name="uni01B6" format="1">
  <advance width="437"/>
  <unicode hex="01B6"/>
  <outline>
    <contour>
      <point x="386" y="237" type="line"/>
      <point x="386" y="283" type="line"/>
      <point x="57" y="283" type="line"/>
      <point x="57" y="237" type="line"/>
    </contour>
    <component base="z" xOffset="6"/>
  </outline>
</glyph>
<glyph name="uni0259" format="1">
  <advance width="503"/>
  <unicode hex="0259"/>
  <outline>
    <contour>
      <point x="238" y="27" type="curve"/>
      <point x="124" y="27"/>
      <point x="87" y="86"/>
      <point x="87" y="194" type="curve"/>
      <point x="87" y="214"/>
      <point x="87" y="230"/>
      <point x="88" y="241" type="curve"/>
      <point x="410" y="241" type="line"/>
      <point x="410" y="91"/>
      <point x="362" y="27"/>
    </contour>
    <contour>
      <point x="73" y="470" type="curve"/>
      <point x="73" y="439" type="line"/>
      <point x="102" y="453"/>
      <point x="167" y="471"/>
      <point x="231" y="471" type="curve" smooth="yes"/>
      <point x="349" y="471"/>
      <point x="409" y="422"/>
      <point x="410" y="273" type="curve"/>
      <point x="56" y="273" type="line"/>
      <point x="54" y="250"/>
      <point x="52" y="225"/>
      <point x="52" y="197" type="curve"/>
      <point x="52" y="54"/>
      <point x="108" y="-7"/>
      <point x="238" y="-7" type="curve"/>
      <point x="381" y="-7"/>
      <point x="446" y="67"/>
      <point x="446" y="259" type="curve" smooth="yes"/>
      <point x="446" y="434"/>
      <point x="382" y="504"/>
      <point x="237" y="504" type="curve" smooth="yes"/>
      <point x="164" y="504"/>
      <point x="99" y="483"/>
    </contour>
  </outline>
</glyph>
<glyph name="circumflex" format="1">
  <advance width="394"/>
  <unicode hex="02C6"/>
  <outline>
    <contour>
      <point x="306" y="569" type="line"/>
      <point x="344" y="569" type="line"/>
      <point x="217" y="683" type="line"/>
      <point x="177" y="683" type="line"/>
      <point x="50" y="569" type="line"/>
      <point x="89" y="569" type="line"/>
      <point x="197" y="657" type="line"/>
    </contour>
    <contour>
      <point x="197" y="530" type="move" name="_top"/>
    </contour>
  </outline>
</glyph>
<glyph name="caron" format="1">
  <advance width="394"/>
  <unicode hex="02C7"/>
  <outline>
    <component base="circumflex" xScale="-1.0" yScale="-1.0" xOffset="394" yOffset="1252"/>
    <contour>
      <point x="197" y="530" type="move" name="_top"/>
    </contour>
  </outline>
</glyph>
<glyph name="ring" format="1">
  <advance width="325"/>
  <unicode hex="02DA"/>
  <outline>
    <contour>
      <point x="161" y="582" type="curve" smooth="yes"/>
      <point x="117" y="582"/>
      <point x="93" y="602"/>
      <point x="93" y="635" type="curve" smooth="yes"/>
      <point x="93" y="666"/>
      <point x="117" y="686"/>
      <point x="161" y="686" type="curve" smooth="yes"/>
      <point x="207" y="686"/>
      <point x="232" y="666"/>
      <point x="232" y="635" type="curve" smooth="yes"/>
      <point x="232" y="602"/>
      <point x="207" y="582"/>
    </contour>
    <contour>
      <point x="161" y="543" type="curve" smooth="yes"/>
      <point x="230" y="543"/>
      <point x="272" y="580"/>
      <point x="272" y="635" type="curve" smooth="yes"/>
      <point x="272" y="688"/>
      <point x="230" y="724"/>
      <point x="161" y="724" type="curve" smooth="yes"/>
      <point x="94" y="724"/>
      <point x="52" y="688"/>
      <point x="52" y="635" type="curve" smooth="yes"/>
      <point x="52" y="580"/>
      <point x="92" y="543"/>
    </contour>
    <contour>
      <point x="161" y="530" type="move" name="_top"/>
    </contour>
  </outline>
</glyph>
<glyph name="ogonek" format="1">
  <advance width="307"/>
  <unicode hex="02DB"/>
  <outline>
    <contour>
      <point x="257" y="9" type="curve"/>
      <point x="225" y="27" type="line"/>
      <point x="171" y="16"/>
      <point x="61" y="-14"/>
      <point x="61" y="-108" type="curve"/>
      <point x="61" y="-158"/>
      <point x="92" y="-195"/>
      <point x="163" y="-195" type="curve"/>
      <point x="200" y="-195"/>
      <point x="228" y="-187"/>
      <point x="241" y="-184" type="curve"/>
      <point x="241" y="-138" type="line"/>
      <point x="226" y="-142"/>
      <point x="203" y="-147"/>
      <point x="178" y="-147" type="curve"/>
      <point x="137" y="-147"/>
      <point x="114" y="-129"/>
      <point x="114" y="-97" type="curve"/>
      <point x="114" y="-36"/>
      <point x="196" y="-4"/>
    </contour>
    <contour>
      <point x="257" y="9" type="move" name="_ogonek"/>
    </contour>
  </outline>
</glyph>
<glyph name="hungarumlaut" format="1">
  <advance width="436"/>
  <unicode hex="02DD"/>
  <outline>
    <contour>
      <point x="206" y="683" type="line"/>
      <point x="156" y="683" type="line"/>
      <point x="55" y="569" type="line"/>
      <point x="90" y="569" type="line"/>
    </contour>
    <contour>
      <point x="381" y="683" type="line"/>
      <point x="331" y="683" type="line"/>
      <point x="230" y="569" type="line"/>
      <point x="265" y="569" type="line"/>
    </contour>
    <contour>
      <point x="186" y="530" type="move" name="_top"/>
    </contour>
  </outline>
</glyph>
<glyph name="uni0394" format="1">
  <advance width="612"/>
  <unicode hex="0394"/>
  <outline>
    <contour>
      <point x="565" y="0" type="line"/>
      <point x="586" y="0" type="line"/>
      <point x="586" y="35" type="line"/>
      <point x="326" y="627" type="line"/>
      <point x="289" y="627" type="line"/>
    </contour>
    <contour>
      <point x="47" y="0" type="line"/>
      <point x="323" y="627" type="line"/>
      <point x="286" y="627" type="line"/>
      <point x="26" y="35" type="line"/>
      <point x="26" y="0" type="line"/>
    </contour>
    <contour>
      <point x="39" y="35" type="line"/>
      <point x="39" y="0" type="line"/>
      <point x="567" y="0" type="line"/>
      <point x="567" y="35" type="line"/>
    </contour>
  </outline>
</glyph>
<glyph name="uni03A9" format="1">
  <advance width="695"/>
  <unicode hex="03A9"/>
  <outline>
    <contour>
      <point x="286" y="0" type="line"/>
      <point x="286" y="168" type="line"/>
      <point x="226" y="168" type="line"/>
      <point x="226" y="0" type="line"/>
    </contour>
    <contour>
      <point x="76" y="61" type="line"/>
      <point x="76" y="0" type="line"/>
      <point x="286" y="0" type="line"/>
      <point x="286" y="61" type="line"/>
    </contour>
    <contour>
      <point x="286" y="118" type="curve"/>
      <point x="286" y="168" type="line"/>
      <point x="184" y="191"/>
      <point x="113" y="254"/>
      <point x="113" y="376" type="curve"/>
      <point x="113" y="500"/>
      <point x="191" y="581"/>
      <point x="348" y="581" type="curve" smooth="yes"/>
      <point x="504" y="581"/>
      <point x="582" y="500"/>
      <point x="582" y="376" type="curve"/>
      <point x="582" y="253"/>
      <point x="511" y="191"/>
      <point x="410" y="168" type="curve"/>
      <point x="410" y="118" type="line"/>
      <point x="559" y="139"/>
      <point x="650" y="229"/>
      <point x="650" y="378" type="curve"/>
      <point x="650" y="535"/>
      <point x="549" y="647"/>
      <point x="348" y="647" type="curve" smooth="yes"/>
      <point x="145" y="647"/>
      <point x="45" y="534"/>
      <point x="45" y="378" type="curve"/>
      <point x="45" y="229"/>
      <point x="135" y="138"/>
    </contour>
    <contour>
      <point x="410" y="0" type="line"/>
      <point x="470" y="0" type="line"/>
      <point x="470" y="168" type="line"/>
      <point x="410" y="168" type="line"/>
    </contour>
    <contour>
      <point x="620" y="61" type="line"/>
      <point x="410" y="61" type="line"/>
      <point x="410" y="0" type="line"/>
      <point x="620" y="0" type="line"/>
    </contour>
  </outline>
</glyph>
<glyph name="uni03BC" format="1">
  <advance width="550"/>
  <unicode hex="03BC"/>
  <outline>
    <contour>
      <point x="238" y="-7" type="curve" smooth="yes"/>
      <point x="304" y="-7"/>
      <point x="362" y="16"/>
      <point x="418" y="46" type="curve"/>
      <point x="422" y="0" type="line"/>
      <point x="477" y="0" type="line"/>
      <point x="477" y="494" type="line"/>
      <point x="415" y="494" type="line"/>
      <point x="415" y="95" type="line"/>
      <point x="363" y="68"/>
      <point x="306" y="51"/>
      <point x="252" y="51" type="curve" smooth="yes"/>
      <point x="170" y="51"/>
      <point x="134" y="80"/>
      <point x="134" y="163" type="curve" smooth="yes"/>
      <point x="134" y="494" type="line"/>
      <point x="72" y="494" type="line"/>
      <point x="72" y="60" type="line" smooth="yes"/>
      <point x="72" y="-14"/>
      <point x="72" y="-86"/>
      <point x="98" y="-152" type="curve"/>
      <point x="161" y="-152" type="line"/>
      <point x="136" y="-93"/>
      <point x="134" y="-29"/>
      <point x="134" y="44" type="curve"/>
      <point x="146" y="8"/>
      <point x="186" y="-7"/>
    </contour>
  </outline>
</glyph>
<glyph name="uni1E9E" format="1">
  <advance width="646"/>
  <unicode hex="1E9E"/>
  <outline>
    <contour>
      <point x="323" y="637" type="curve"/>
      <point x="151" y="637"/>
      <point x="83" y="564"/>
      <point x="83" y="415" type="curve" smooth="yes"/>
      <point x="83" y="0" type="line"/>
      <point x="120" y="0" type="line"/>
      <point x="120" y="415" type="line" smooth="yes"/>
      <point x="120" y="546"/>
      <point x="175" y="603"/>
      <point x="322" y="603" type="curve"/>
      <point x="401" y="603"/>
      <point x="469" y="592"/>
      <point x="490" y="586" type="curve"/>
      <point x="403" y="321" type="line"/>
      <point x="495" y="293" type="line" smooth="yes"/>
      <point x="543" y="278"/>
      <point x="565" y="254"/>
      <point x="565" y="181" type="curve" smooth="yes"/>
      <point x="565" y="63"/>
      <point x="510" y="24"/>
      <point x="422" y="24" type="curve" smooth="yes"/>
      <point x="357" y="24"/>
      <point x="322" y="32"/>
      <point x="298" y="38" type="curve"/>
      <point x="298" y="3" type="line"/>
      <point x="328" y="-5"/>
      <point x="374" y="-10"/>
      <point x="427" y="-10" type="curve" smooth="yes"/>
      <point x="533" y="-10"/>
      <point x="602" y="39"/>
      <point x="602" y="182" type="curve" smooth="yes"/>
      <point x="602" y="275"/>
      <point x="572" y="306"/>
      <point x="512" y="324" type="curve" smooth="yes"/>
      <point x="447" y="344" type="line"/>
      <point x="533" y="611" type="line"/>
      <point x="496" y="624"/>
      <point x="423" y="637"/>
    </contour>
  </outline>
</glyph>
<glyph name="quoteright" format="1">
  <advance width="158"/>
  <unicode hex="2019"/>
  <outline>
    <contour>
      <point x="87" y="488" type="curve" smooth="yes"/>
      <point x="108" y="627" type="line"/>
      <point x="69" y="627" type="line"/>
      <point x="60" y="468" type="line"/>
      <point x="66" y="468" type="line" smooth="yes"/>
      <point x="80" y="468"/>
      <point x="84" y="474"/>
    </contour>
  </outline>
</glyph>
<glyph name="dagger" format="1">
  <advance width="363"/>
  <unicode hex="2020"/>
  <outline>
    <contour>
      <point x="176" y="495" type="line"/>
      <point x="176" y="458" type="line"/>
      <point x="334" y="452" type="line"/>
      <point x="334" y="502" type="line"/>
    </contour>
    <contour>
      <point x="207" y="221" type="line"/>
      <point x="201" y="478" type="line"/>
      <point x="161" y="478" type="line"/>
      <point x="154" y="221" type="line"/>
    </contour>
    <contour>
      <point x="187" y="458" type="line"/>
      <point x="187" y="495" type="line"/>
      <point x="29" y="502" type="line"/>
      <point x="29" y="452" type="line"/>
    </contour>
    <contour>
      <point x="161" y="471" type="line"/>
      <point x="201" y="471" type="line"/>
      <point x="206" y="627" type="line"/>
      <point x="155" y="627" type="line"/>
    </contour>
  </outline>
</glyph>
<glyph name="daggerdbl" format="1">
  <advance width="400"/>
  <unicode hex="2021"/>
  <outline>
    <contour>
      <point x="195" y="495" type="line"/>
      <point x="195" y="458" type="line"/>
      <point x="352" y="452" type="line"/>
      <point x="352" y="502" type="line"/>
    </contour>
    <contour>
      <point x="219" y="258" type="line"/>
      <point x="219" y="478" type="line"/>
      <point x="179" y="478" type="line"/>
      <point x="179" y="258" type="line"/>
    </contour>
    <contour>
      <point x="205" y="458" type="line"/>
      <point x="205" y="495" type="line"/>
      <point x="47" y="502" type="line"/>
      <point x="47" y="452" type="line"/>
    </contour>
    <contour>
      <point x="179" y="471" type="line"/>
      <point x="219" y="471" type="line"/>
      <point x="225" y="627" type="line"/>
      <point x="173" y="627" type="line"/>
    </contour>
    <contour>
      <point x="205" y="250" type="line"/>
      <point x="205" y="287" type="line"/>
      <point x="47" y="293" type="line"/>
      <point x="47" y="243" type="line"/>
    </contour>
    <contour>
      <point x="195" y="287" type="line"/>
      <point x="195" y="250" type="line"/>
      <point x="352" y="243" type="line"/>
      <point x="352" y="293" type="line"/>
    </contour>
    <contour>
      <point x="219" y="274" type="line"/>
      <point x="179" y="274" type="line"/>
      <point x="173" y="118" type="line"/>
      <point x="225" y="118" type="line"/>
    </contour>
  </outline>
</glyph>
<glyph name="ellipsis" format="1">
  <advance width="444"/>
  <unicode hex="2026"/>
  <outline>
    <contour>
      <point x="193" y="0" type="line"/>
      <point x="250" y="0" type="line"/>
      <point x="250" y="67" type="line"/>
      <point x="193" y="67" type="line"/>
    </contour>
    <contour>
      <point x="48" y="0" type="line"/>
      <point x="105" y="0" type="line"/>
      <point x="105" y="67" type="line"/>
      <point x="48" y="67" type="line"/>
    </contour>
    <contour>
      <point x="339" y="0" type="line"/>
      <point x="396" y="0" type="line"/>
      <point x="396" y="67" type="line"/>
      <point x="339" y="67" type="line"/>
    </contour>
  </outline>
</glyph>
<glyph name="perthousand" format="1">
  <advance width="930"/>
  <unicode hex="2030"/>
  <outline>
    <contour>
      <point x="154" y="592" type="curve"/>
      <point x="209" y="592"/>
      <point x="229" y="562"/>
      <point x="229" y="476" type="curve"/>
      <point x="229" y="391"/>
      <point x="209" y="361"/>
      <point x="154" y="361" type="curve"/>
      <point x="99" y="361"/>
      <point x="79" y="391"/>
      <point x="79" y="476" type="curve"/>
      <point x="79" y="562"/>
      <point x="99" y="592"/>
    </contour>
    <contour>
      <point x="154" y="320" type="curve"/>
      <point x="242" y="320"/>
      <point x="275" y="362"/>
      <point x="275" y="476" type="curve"/>
      <point x="275" y="590"/>
      <point x="242" y="632"/>
      <point x="154" y="632" type="curve"/>
      <point x="65" y="632"/>
      <point x="32" y="590"/>
      <point x="32" y="476" type="curve"/>
      <point x="32" y="362"/>
      <point x="65" y="320"/>
    </contour>
    <contour>
      <point x="483" y="268" type="curve"/>
      <point x="538" y="268"/>
      <point x="558" y="237"/>
      <point x="558" y="152" type="curve"/>
      <point x="558" y="68"/>
      <point x="538" y="38"/>
      <point x="483" y="38" type="curve"/>
      <point x="428" y="38"/>
      <point x="409" y="68"/>
      <point x="409" y="152" type="curve"/>
      <point x="409" y="237"/>
      <point x="428" y="268"/>
    </contour>
    <contour>
      <point x="483" y="-4" type="curve"/>
      <point x="571" y="-4"/>
      <point x="605" y="38"/>
      <point x="605" y="152" type="curve"/>
      <point x="605" y="266"/>
      <point x="571" y="308"/>
      <point x="483" y="308" type="curve"/>
      <point x="395" y="308"/>
      <point x="361" y="266"/>
      <point x="361" y="152" type="curve"/>
      <point x="361" y="38"/>
      <point x="395" y="-4"/>
    </contour>
    <contour>
      <point x="776" y="268" type="curve"/>
      <point x="831" y="268"/>
      <point x="851" y="237"/>
      <point x="851" y="152" type="curve"/>
      <point x="851" y="68"/>
      <point x="831" y="38"/>
      <point x="776" y="38" type="curve"/>
      <point x="721" y="38"/>
      <point x="702" y="68"/>
      <point x="702" y="152" type="curve"/>
      <point x="702" y="237"/>
      <point x="721" y="268"/>
    </contour>
    <contour>
      <point x="776" y="-4" type="curve"/>
      <point x="864" y="-4"/>
      <point x="898" y="38"/>
      <point x="898" y="152" type="curve"/>
      <point x="898" y="266"/>
      <point x="864" y="308"/>
      <point x="776" y="308" type="curve"/>
      <point x="688" y="308"/>
      <point x="654" y="266"/>
      <point x="654" y="152" type="curve"/>
      <point x="654" y="38"/>
      <point x="688" y="-4"/>
    </contour>
    <component base="fraction" xOffset="246"/>
  </outline>
</glyph>
<glyph name="guilsinglleft" format="1">
  <advance width="276"/>
  <unicode hex="2039"/>
  <outline>
    <contour>
      <point x="242" y="494" type="line"/>
      <point x="176" y="494" type="line"/>
      <point x="27" y="281" type="line"/>
      <point x="82" y="264" type="line"/>
    </contour>
    <contour>
      <point x="176" y="64" type="line"/>
      <point x="242" y="64" type="line"/>
      <point x="82" y="299" type="line"/>
      <point x="27" y="281" type="line"/>
    </contour>
  </outline>
</glyph>
<glyph name="fraction" format="1">
  <advance width="140"/>
  <unicode hex="2044"/>
  <outline>
    <contour>
      <point x="-55" y="0" type="line"/>
      <point x="245" y="627" type="line"/>
      <point x="196" y="627" type="line"/>
      <point x="-104" y="0" type="line"/>
    </contour>
  </outline>
</glyph>
<glyph name="uni2070" format="1">
  <advance width="371"/>
  <unicode hex="2070"/>
  <outline>
    <contour>
      <point x="186" y="604" type="curve"/>
      <point x="271" y="604"/>
      <point x="293" y="573"/>
      <point x="293" y="450" type="curve"/>
      <point x="293" y="331"/>
      <point x="268" y="296"/>
      <point x="186" y="296" type="curve"/>
      <point x="100" y="296"/>
      <point x="78" y="327"/>
      <point x="78" y="450" type="curve"/>
      <point x="78" y="568"/>
      <point x="104" y="604"/>
    </contour>
    <contour>
      <point x="186" y="266" type="curve"/>
      <point x="287" y="266"/>
      <point x="325" y="310"/>
      <point x="325" y="450" type="curve"/>
      <point x="325" y="594"/>
      <point x="295" y="633"/>
      <point x="186" y="633" type="curve"/>
      <point x="84" y="633"/>
      <point x="46" y="589"/>
      <point x="46" y="450" type="curve"/>
      <point x="46" y="305"/>
      <point x="78" y="266"/>
    </contour>
  </outline>
</glyph>
<glyph name="uni2074" format="1">
  <advance width="338"/>
  <unicode hex="2074"/>
  <outline>
    <contour>
      <point x="309" y="370" type="line"/>
      <point x="309" y="399" type="line"/>
      <point x="252" y="399" type="line"/>
      <point x="252" y="565" type="line"/>
      <point x="220" y="565" type="line"/>
      <point x="220" y="399" type="line"/>
      <point x="68" y="399" type="line"/>
      <point x="115" y="627" type="line"/>
      <point x="84" y="627" type="line"/>
      <point x="36" y="398" type="line"/>
      <point x="36" y="370" type="line"/>
      <point x="220" y="370" type="line"/>
      <point x="220" y="270" type="line"/>
      <point x="252" y="270" type="line"/>
      <point x="252" y="370" type="line"/>
    </contour>
  </outline>
</glyph>
<glyph name="uni2078" format="1">
  <advance width="339"/>
  <unicode hex="2078"/>
  <outline>
    <contour>
      <point x="168" y="265" type="curve"/>
      <point x="260" y="265"/>
      <point x="301" y="296"/>
      <point x="301" y="365" type="curve"/>
      <point x="301" y="413"/>
      <point x="273" y="446"/>
      <point x="222" y="454" type="curve"/>
      <point x="272" y="463"/>
      <point x="294" y="496"/>
      <point x="294" y="541" type="curve"/>
      <point x="294" y="605"/>
      <point x="257" y="633"/>
      <point x="168" y="633" type="curve"/>
      <point x="83" y="633"/>
      <point x="45" y="604"/>
      <point x="45" y="540" type="curve"/>
      <point x="45" y="496"/>
      <point x="65" y="463"/>
      <point x="115" y="454" type="curve"/>
      <point x="62" y="446"/>
      <point x="38" y="409"/>
      <point x="38" y="362" type="curve"/>
      <point x="38" y="295"/>
      <point x="76" y="265"/>
    </contour>
    <contour>
      <point x="168" y="592" type="curve"/>
      <point x="226" y="592"/>
      <point x="249" y="575"/>
      <point x="249" y="534" type="curve"/>
      <point x="249" y="496"/>
      <point x="231" y="471"/>
      <point x="168" y="471" type="curve"/>
      <point x="106" y="471"/>
      <point x="90" y="496"/>
      <point x="90" y="533" type="curve"/>
      <point x="90" y="574"/>
      <point x="112" y="592"/>
    </contour>
    <contour>
      <point x="168" y="432" type="curve"/>
      <point x="228" y="432"/>
      <point x="254" y="414"/>
      <point x="254" y="371" type="curve"/>
      <point x="254" y="327"/>
      <point x="228" y="308"/>
      <point x="168" y="308" type="curve"/>
      <point x="110" y="308"/>
      <point x="84" y="327"/>
      <point x="84" y="369" type="curve"/>
      <point x="84" y="412"/>
      <point x="110" y="432"/>
    </contour>
  </outline>
</glyph>
<glyph name="uni2079" format="1">
  <advance width="331"/>
  <unicode hex="2079"/>
  <outline>
    <contour>
      <point x="292" y="459" type="curve"/>
      <point x="292" y="590"/>
      <point x="256" y="633"/>
      <point x="160" y="633" type="curve"/>
      <point x="79" y="633"/>
      <point x="30" y="589"/>
      <point x="30" y="512" type="curve"/>
      <point x="30" y="434"/>
      <point x="67" y="401"/>
      <point x="138" y="401" type="curve"/>
      <point x="186" y="401"/>
      <point x="220" y="415"/>
      <point x="250" y="433" type="curve"/>
      <point x="250" y="470" type="line"/>
      <point x="224" y="454"/>
      <point x="194" y="442"/>
      <point x="155" y="442" type="curve"/>
      <point x="100" y="442"/>
      <point x="78" y="458"/>
      <point x="78" y="514" type="curve"/>
      <point x="78" y="563"/>
      <point x="105" y="590"/>
      <point x="160" y="590" type="curve"/>
      <point x="224" y="590"/>
      <point x="244" y="561"/>
      <point x="244" y="463" type="curve"/>
      <point x="244" y="349"/>
      <point x="218" y="307"/>
      <point x="125" y="307" type="curve"/>
      <point x="100" y="307"/>
      <point x="83" y="309"/>
      <point x="70" y="311" type="curve"/>
      <point x="70" y="270" type="line"/>
      <point x="80" y="267"/>
      <point x="106" y="265"/>
      <point x="125" y="265" type="curve"/>
      <point x="247" y="265"/>
      <point x="292" y="326"/>
    </contour>
  </outline>
</glyph>
<glyph name="Euro" format="1">
  <advance width="570"/>
  <unicode hex="20AC"/>
  <outline>
    <contour>
      <point x="40" y="399" type="line"/>
      <point x="40" y="368" type="line"/>
      <point x="478" y="368" type="line"/>
      <point x="478" y="399" type="line"/>
    </contour>
    <contour>
      <point x="40" y="270" type="line"/>
      <point x="40" y="239" type="line"/>
      <point x="478" y="239" type="line"/>
      <point x="478" y="270" type="line"/>
    </contour>
    <contour>
      <point x="525" y="68" type="line"/>
      <point x="479" y="43"/>
      <point x="420" y="29"/>
      <point x="367" y="29" type="curve"/>
      <point x="213" y="29"/>
      <point x="158" y="91"/>
      <point x="158" y="316" type="curve" smooth="yes"/>
      <point x="158" y="530"/>
      <point x="215" y="602"/>
      <point x="377" y="602" type="curve"/>
      <point x="424" y="602"/>
      <point x="468" y="598"/>
      <point x="511" y="590" type="curve"/>
      <point x="511" y="624" type="line"/>
      <point x="472" y="633"/>
      <point x="424" y="637"/>
      <point x="377" y="637" type="curve"/>
      <point x="197" y="637"/>
      <point x="120" y="552"/>
      <point x="120" y="316" type="curve" smooth="yes"/>
      <point x="120" y="75"/>
      <point x="190" y="-7"/>
      <point x="354" y="-7" type="curve"/>
      <point x="429" y="-7"/>
      <point x="486" y="12"/>
      <point x="525" y="32" type="curve"/>
    </contour>
  </outline>
</glyph>
<glyph name="uni2120" format="1">
  <advance width="787"/>
  <unicode hex="2120"/>
  <outline>
    <contour>
      <point x="134" y="452" type="curve" smooth="yes"/>
      <point x="229" y="430" type="line" smooth="yes"/>
      <point x="271" y="421"/>
      <point x="285" y="409"/>
      <point x="285" y="372" type="curve"/>
      <point x="285" y="322"/>
      <point x="271" y="297"/>
      <point x="189" y="297" type="curve"/>
      <point x="133" y="297"/>
      <point x="90" y="307"/>
      <point x="65" y="314" type="curve"/>
      <point x="65" y="285" type="line"/>
      <point x="85" y="277"/>
      <point x="131" y="268"/>
      <point x="189" y="268" type="curve"/>
      <point x="296" y="268"/>
      <point x="316" y="311"/>
      <point x="316" y="372" type="curve"/>
      <point x="316" y="430"/>
      <point x="293" y="445"/>
      <point x="240" y="458" type="curve" smooth="yes"/>
      <point x="144" y="480" type="line" smooth="yes"/>
      <point x="108" y="489"/>
      <point x="97" y="504"/>
      <point x="97" y="531" type="curve"/>
      <point x="97" y="588"/>
      <point x="122" y="606"/>
      <point x="195" y="606" type="curve" smooth="yes"/>
      <point x="239" y="606"/>
      <point x="268" y="601"/>
      <point x="287" y="597" type="curve"/>
      <point x="287" y="625" type="line"/>
      <point x="269" y="630"/>
      <point x="240" y="635"/>
      <point x="196" y="635" type="curve" smooth="yes"/>
      <point x="105" y="635"/>
      <point x="66" y="606"/>
      <point x="66" y="530" type="curve"/>
      <point x="66" y="483"/>
      <point x="89" y="462"/>
    </contour>
    <contour>
      <point x="712" y="276" type="line"/>
      <point x="712" y="627" type="line"/>
      <point x="672" y="627" type="line"/>
      <point x="543" y="384" type="line"/>
      <point x="413" y="627" type="line"/>
      <point x="373" y="627" type="line"/>
      <point x="373" y="276" type="line"/>
      <point x="403" y="276" type="line"/>
      <point x="403" y="581" type="line"/>
      <point x="528" y="347" type="line"/>
      <point x="557" y="347" type="line"/>
      <point x="682" y="581" type="line"/>
      <point x="682" y="276" type="line"/>
    </contour>
  </outline>
</glyph>
<glyph name="trademark" format="1">
  <advance width="776"/>
  <unicode hex="2122"/>
  <outline>
    <contour>
      <point x="321" y="598" type="line"/>
      <point x="321" y="627" type="line"/>
      <point x="24" y="627" type="line"/>
      <point x="24" y="598" type="line"/>
      <point x="157" y="598" type="line"/>
      <point x="157" y="276" type="line"/>
      <point x="188" y="276" type="line"/>
      <point x="188" y="598" type="line"/>
    </contour>
    <contour>
      <point x="701" y="276" type="line"/>
      <point x="701" y="627" type="line"/>
      <point x="661" y="627" type="line"/>
      <point x="532" y="384" type="line"/>
      <point x="402" y="627" type="line"/>
      <point x="362" y="627" type="line"/>
      <point x="362" y="276" type="line"/>
      <point x="391" y="276" type="line"/>
      <point x="391" y="581" type="line"/>
      <point x="517" y="347" type="line"/>
      <point x="546" y="347" type="line"/>
      <point x="671" y="581" type="line"/>
      <point x="671" y="276" type="line"/>
    </contour>
  </outline>
</glyph>
<glyph name="arrowup" format="1">
  <advance width="670"/>
  <unicode hex="2191"/>
  <outline>
    <contour>
      <point x="649" y="406" type="line"/>
      <point x="649" y="474" type="line"/>
      <point x="334" y="646" type="line"/>
      <point x="22" y="474" type="line"/>
      <point x="22" y="406" type="line"/>
      <point x="238" y="526" type="line" smooth="yes"/>
      <point x="258" y="537"/>
      <point x="289" y="553"/>
      <point x="304" y="563" type="curve"/>
      <point x="306" y="562" type="line"/>
      <point x="304" y="536"/>
      <point x="304" y="518"/>
      <point x="304" y="462" type="curve" smooth="yes"/>
      <point x="304" y="0" type="line"/>
      <point x="366" y="0" type="line"/>
      <point x="366" y="462" type="line" smooth="yes"/>
      <point x="366" y="518"/>
      <point x="366" y="536"/>
      <point x="364" y="562" type="curve"/>
      <point x="366" y="563" type="line"/>
      <point x="381" y="553"/>
      <point x="409" y="537"/>
      <point x="430" y="526" type="curve" smooth="yes"/>
    </contour>
  </outline>
</glyph>
<glyph name="partialdiff" format="1">
  <advance width="555"/>
  <unicode hex="2202"/>
  <outline>
    <contour>
      <point x="445" y="422" type="curve"/>
      <point x="445" y="274"/>
      <point x="410" y="52"/>
      <point x="238" y="52" type="curve"/>
      <point x="140" y="52"/>
      <point x="96" y="110"/>
      <point x="96" y="197" type="curve" smooth="yes"/>
      <point x="96" y="304"/>
      <point x="149" y="376"/>
      <point x="264" y="376" type="curve"/>
      <point x="339" y="376"/>
      <point x="394" y="357"/>
      <point x="457" y="316" type="curve"/>
      <point x="462" y="372" type="line"/>
      <point x="400" y="413"/>
      <point x="338" y="431"/>
      <point x="258" y="431" type="curve"/>
      <point x="111" y="431"/>
      <point x="33" y="338"/>
      <point x="33" y="192" type="curve" smooth="yes"/>
      <point x="33" y="78"/>
      <point x="90" y="-10"/>
      <point x="226" y="-10" type="curve"/>
      <point x="461" y="-10"/>
      <point x="506" y="253"/>
      <point x="506" y="423" type="curve"/>
      <point x="506" y="615"/>
      <point x="439" y="674"/>
      <point x="281" y="674" type="curve"/>
      <point x="222" y="674"/>
      <point x="176" y="669"/>
      <point x="123" y="655" type="curve"/>
      <point x="123" y="601" type="line"/>
      <point x="174" y="615"/>
      <point x="221" y="620"/>
      <point x="272" y="620" type="curve"/>
      <point x="401" y="620"/>
      <point x="445" y="577"/>
    </contour>
  </outline>
</glyph>
<glyph name="product" format="1">
  <advance width="597"/>
  <unicode hex="220F"/>
  <outline>
    <contour>
      <point x="163" y="-152" type="line"/>
      <point x="163" y="603" type="line"/>
      <point x="126" y="603" type="line"/>
      <point x="126" y="-152" type="line"/>
    </contour>
    <contour>
      <point x="471" y="-152" type="line"/>
      <point x="471" y="603" type="line"/>
      <point x="434" y="603" type="line"/>
      <point x="434" y="-152" type="line"/>
    </contour>
    <contour>
      <point x="21" y="627" type="line"/>
      <point x="21" y="592" type="line"/>
      <point x="576" y="592" type="line"/>
      <point x="576" y="627" type="line"/>
    </contour>
  </outline>
</glyph>
<glyph name="summation" format="1">
  <advance width="522"/>
  <unicode hex="2211"/>
  <outline>
    <contour>
      <point x="23" y="-117" type="line"/>
      <point x="23" y="-152" type="line"/>
      <point x="498" y="-152" type="line"/>
      <point x="498" y="-117" type="line"/>
      <point x="68" y="-117" type="line"/>
      <point x="366" y="238" type="line"/>
      <point x="94" y="592" type="line"/>
      <point x="478" y="592" type="line"/>
      <point x="478" y="627" type="line"/>
      <point x="48" y="627" type="line"/>
      <point x="48" y="592" type="line"/>
      <point x="320" y="238" type="line"/>
    </contour>
  </outline>
</glyph>
<glyph name="radical" format="1">
  <advance width="662"/>
  <unicode hex="221A"/>
  <outline>
    <contour>
      <point x="294" y="-152" type="line"/>
      <point x="317" y="-152" type="line"/>
      <point x="317" y="-121" type="line"/>
      <point x="133" y="327" type="line"/>
      <point x="91" y="327" type="line"/>
    </contour>
    <contour>
      <point x="332" y="-152" type="line"/>
      <point x="656" y="779" type="line"/>
      <point x="616" y="779" type="line"/>
      <point x="305" y="-121" type="line"/>
      <point x="305" y="-152" type="line"/>
    </contour>
    <contour>
      <point x="12" y="327" type="line"/>
      <point x="12" y="292" type="line"/>
      <point x="121" y="292" type="line"/>
      <point x="121" y="327" type="line"/>
    </contour>
  </outline>
</glyph>
<glyph name="integral" format="1">
  <advance width="469"/>
  <unicode hex="222B"/>
  <outline>
    <contour>
      <point x="219" y="-1" type="curve" smooth="yes"/>
      <point x="288" y="624" type="line" smooth="yes"/>
      <point x="297" y="713"/>
      <point x="329" y="744"/>
      <point x="412" y="744" type="curve" smooth="yes"/>
      <point x="464" y="744" type="line"/>
      <point x="464" y="779" type="line"/>
      <point x="407" y="779" type="line" smooth="yes"/>
      <point x="306" y="779"/>
      <point x="263" y="735"/>
      <point x="251" y="628" type="curve" smooth="yes"/>
      <point x="182" y="3" type="line" smooth="yes"/>
      <point x="172" y="-86"/>
      <point x="141" y="-117"/>
      <point x="57" y="-117" type="curve" smooth="yes"/>
      <point x="6" y="-117" type="line"/>
      <point x="6" y="-152" type="line"/>
      <point x="64" y="-152" type="line" smooth="yes"/>
      <point x="165" y="-152"/>
      <point x="207" y="-107"/>
    </contour>
  </outline>
</glyph>
<glyph name="approxequal" format="1">
  <advance width="500"/>
  <unicode hex="2248"/>
  <outline>
    <contour>
      <point x="463" y="185" type="curve"/>
      <point x="463" y="223" type="line"/>
      <point x="429" y="192"/>
      <point x="397" y="181"/>
      <point x="367" y="181" type="curve" smooth="yes"/>
      <point x="285" y="181"/>
      <point x="224" y="265"/>
      <point x="133" y="265" type="curve" smooth="yes"/>
      <point x="103" y="265"/>
      <point x="69" y="255"/>
      <point x="37" y="227" type="curve"/>
      <point x="37" y="189" type="line"/>
      <point x="71" y="220"/>
      <point x="103" y="231"/>
      <point x="133" y="231" type="curve" smooth="yes"/>
      <point x="215" y="231"/>
      <point x="276" y="147"/>
      <point x="367" y="147" type="curve" smooth="yes"/>
      <point x="397" y="147"/>
      <point x="431" y="155"/>
    </contour>
    <contour>
      <point x="463" y="395" type="curve"/>
      <point x="463" y="433" type="line"/>
      <point x="429" y="402"/>
      <point x="397" y="391"/>
      <point x="367" y="391" type="curve" smooth="yes"/>
      <point x="285" y="391"/>
      <point x="224" y="475"/>
      <point x="133" y="475" type="curve" smooth="yes"/>
      <point x="103" y="475"/>
      <point x="69" y="465"/>
      <point x="37" y="437" type="curve"/>
      <point x="37" y="399" type="line"/>
      <point x="71" y="430"/>
      <point x="103" y="441"/>
      <point x="133" y="441" type="curve" smooth="yes"/>
      <point x="215" y="441"/>
      <point x="276" y="357"/>
      <point x="367" y="357" type="curve" smooth="yes"/>
      <point x="397" y="357"/>
      <point x="431" y="365"/>
    </contour>
  </outline>
</glyph>
<glyph name="notequal" format="1">
  <advance width="500"/>
  <unicode hex="2260"/>
  <outline>
    <contour>
      <point x="168" y="57" type="line"/>
      <point x="365" y="567" type="line"/>
      <point x="325" y="567" type="line"/>
      <point x="128" y="57" type="line"/>
    </contour>
    <component base="minus" yOffset="-115"/>
    <component base="minus" yOffset="95"/>
  </outline>
</glyph>
<glyph name="lessequal" format="1">
  <advance width="500"/>
  <unicode hex="2264"/>
  <outline>
    <contour>
      <point x="463" y="542" type="line"/>
      <point x="463" y="584" type="line"/>
      <point x="37" y="260" type="line"/>
      <point x="57" y="235" type="line"/>
    </contour>
    <contour>
      <point x="463" y="227" type="line"/>
      <point x="463" y="260" type="line"/>
      <point x="37" y="260" type="line"/>
      <point x="37" y="227" type="line"/>
    </contour>
    <component base="minus" yOffset="-222"/>
  </outline>
</glyph>
<glyph name="breve.uc" format="1">
  <advance width="377"/>
  <outline>
    <contour>
      <point x="327" y="673" type="curve"/>
      <point x="297" y="673" type="line"/>
      <point x="297" y="626"/>
      <point x="257" y="590"/>
      <point x="189" y="590" type="curve" smooth="yes"/>
      <point x="118" y="590"/>
      <point x="80" y="626"/>
      <point x="80" y="673" type="curve"/>
      <point x="50" y="673" type="line"/>
      <point x="50" y="611"/>
      <point x="95" y="562"/>
      <point x="189" y="562" type="curve" smooth="yes"/>
      <point x="282" y="562"/>
      <point x="327" y="611"/>
    </contour>
    <contour>
      <point x="188" y="530" type="move" name="_top"/>
    </contour>
  </outline>
</glyph>
<glyph name="caron.uc" format="1">
  <advance width="394"/>
  <outline>
    <component base="circumflex.uc" xScale="-1.0" yScale="-1.0" xOffset="394" yOffset="1242"/>
    <contour>
      <point x="197" y="530" type="move" name="_top"/>
    </contour>
  </outline>
</glyph>
<glyph name="dotaccent.uc" format="1">
  <advance width="177"/>
  <outline>
    <contour>
      <point x="57" y="566" type="line"/>
      <point x="120" y="566" type="line"/>
      <point x="120" y="625" type="line"/>
      <point x="57" y="625" type="line"/>
    </contour>
    <contour>
      <point x="89" y="530" type="move" name="_top"/>
    </contour>
  </outline>
</glyph>
<glyph name="eight.tf" format="1">
  <advance width="500"/>
  <outline>
    <contour>
      <point x="248" y="-7" type="curve"/>
      <point x="386" y="-7"/>
      <point x="449" y="48"/>
      <point x="449" y="166" type="curve"/>
      <point x="449" y="257"/>
      <point x="400" y="314"/>
      <point x="314" y="322" type="curve"/>
      <point x="396" y="332"/>
      <point x="437" y="387"/>
      <point x="437" y="481" type="curve"/>
      <point x="437" y="587"/>
      <point x="379" y="638"/>
      <point x="248" y="638" type="curve"/>
      <point x="121" y="638"/>
      <point x="62" y="584"/>
      <point x="62" y="476" type="curve"/>
      <point x="62" y="389"/>
      <point x="102" y="331"/>
      <point x="184" y="322" type="curve"/>
      <point x="94" y="312"/>
      <point x="51" y="247"/>
      <point x="51" y="157" type="curve"/>
      <point x="51" y="45"/>
      <point x="111" y="-7"/>
    </contour>
    <contour>
      <point x="248" y="604" type="curve"/>
      <point x="357" y="604"/>
      <point x="403" y="564"/>
      <point x="403" y="476" type="curve"/>
      <point x="403" y="398"/>
      <point x="371" y="337"/>
      <point x="248" y="337" type="curve"/>
      <point x="127" y="337"/>
      <point x="97" y="398"/>
      <point x="97" y="474" type="curve"/>
      <point x="97" y="563"/>
      <point x="141" y="604"/>
    </contour>
    <contour>
      <point x="248" y="304" type="curve"/>
      <point x="361" y="304"/>
      <point x="414" y="261"/>
      <point x="414" y="168" type="curve"/>
      <point x="414" y="72"/>
      <point x="362" y="28"/>
      <point x="248" y="28" type="curve"/>
      <point x="137" y="28"/>
      <point x="88" y="69"/>
      <point x="88" y="160" type="curve"/>
      <point x="88" y="259"/>
      <point x="137" y="304"/>
    </contour>
  </outline>
</glyph>
<glyph name="f.alt" format="1">
  <advance width="314"/>
  <outline>
    <contour>
      <point x="309" y="668" type="line"/>
      <point x="296" y="671"/>
      <point x="279" y="675"/>
      <point x="249" y="675" type="curve"/>
      <point x="145" y="675"/>
      <point x="109" y="617"/>
      <point x="109" y="515" type="curve"/>
      <point x="109" y="0" type="line"/>
      <point x="145" y="0" type="line"/>
      <point x="145" y="515" type="line"/>
      <point x="145" y="602"/>
      <point x="169" y="642"/>
      <point x="253" y="642" type="curve"/>
      <point x="277" y="642"/>
      <point x="296" y="640"/>
      <point x="309" y="636" type="curve"/>
    </contour>
    <contour>
      <point x="25" y="462" type="line"/>
      <point x="294" y="462" type="line"/>
      <point x="294" y="494" type="line"/>
      <point x="25" y="494" type="line"/>
    </contour>
  </outline>
</glyph>
<glyph name="five.osf" format="1">
  <advance width="457"/>
  <outline>
    <contour>
      <point x="209" y="-159" type="curve"/>
      <point x="352" y="-159"/>
      <point x="413" y="-99"/>
      <point x="413" y="36" type="curve" smooth="yes"/>
      <point x="413" y="176"/>
      <point x="330" y="208"/>
      <point x="210" y="208" type="curve" smooth="yes"/>
      <point x="170" y="208"/>
      <point x="138" y="204"/>
      <point x="114" y="199" type="curve"/>
      <point x="114" y="459" type="line"/>
      <point x="373" y="459" type="line"/>
      <point x="373" y="494" type="line"/>
      <point x="76" y="494" type="line"/>
      <point x="76" y="162" type="line"/>
      <point x="119" y="172"/>
      <point x="157" y="175"/>
      <point x="199" y="175" type="curve" smooth="yes"/>
      <point x="305" y="175"/>
      <point x="375" y="153"/>
      <point x="375" y="36" type="curve" smooth="yes"/>
      <point x="375" y="-80"/>
      <point x="326" y="-123"/>
      <point x="203" y="-123" type="curve"/>
      <point x="139" y="-123"/>
      <point x="85" y="-116"/>
      <point x="46" y="-104" type="curve"/>
      <point x="46" y="-139" type="line"/>
      <point x="79" y="-151"/>
      <point x="134" y="-159"/>
    </contour>
  </outline>
</glyph>
<glyph name="five.tf" format="1">
  <advance width="500"/>
  <outline>
    <contour>
      <point x="234" y="-7" type="curve"/>
      <point x="382" y="-7"/>
      <point x="452" y="52"/>
      <point x="452" y="184" type="curve" smooth="yes"/>
      <point x="452" y="324"/>
      <point x="364" y="358"/>
      <point x="243" y="358" type="curve" smooth="yes"/>
      <point x="205" y="358"/>
      <point x="171" y="354"/>
      <point x="148" y="351" type="curve"/>
      <point x="148" y="569" type="line"/>
      <point x="408" y="569" type="line"/>
      <point x="408" y="628" type="line"/>
      <point x="84" y="628" type="line"/>
      <point x="84" y="290" type="line"/>
      <point x="129" y="299"/>
      <point x="168" y="302"/>
      <point x="216" y="303" type="curve" smooth="yes"/>
      <point x="322" y="303"/>
      <point x="387" y="283"/>
      <point x="387" y="185" type="curve" smooth="yes"/>
      <point x="387" y="89"/>
      <point x="339" y="53"/>
      <point x="220" y="53" type="curve"/>
      <point x="151" y="53"/>
      <point x="95" y="60"/>
      <point x="52" y="71" type="curve"/>
      <point x="52" y="12" type="line"/>
      <point x="89" y="0"/>
      <point x="152" y="-7"/>
    </contour>
  </outline>
</glyph>
<glyph name="four.osf" format="1">
  <advance width="530"/>
  <outline>
    <contour>
      <point x="499" y="27" type="line"/>
      <point x="499" y="83" type="line"/>
      <point x="408" y="83" type="line"/>
      <point x="408" y="381" type="line"/>
      <point x="343" y="381" type="line"/>
      <point x="343" y="83" type="line"/>
      <point x="113" y="83" type="line"/>
      <point x="188" y="494" type="line"/>
      <point x="125" y="494" type="line"/>
      <point x="48" y="83" type="line"/>
      <point x="48" y="27" type="line"/>
      <point x="343" y="27" type="line"/>
      <point x="343" y="-152" type="line"/>
      <point x="408" y="-152" type="line"/>
      <point x="408" y="27" type="line"/>
    </contour>
  </outline>
</glyph>
<glyph name="four.tf" format="1">
  <advance width="500"/>
  <outline>
    <contour>
      <point x="468" y="182" type="line"/>
      <point x="468" y="216" type="line"/>
      <point x="374" y="216" type="line"/>
      <point x="374" y="518" type="line"/>
      <point x="337" y="518" type="line"/>
      <point x="337" y="216" type="line"/>
      <point x="82" y="216" type="line"/>
      <point x="156" y="628" type="line"/>
      <point x="121" y="628" type="line"/>
      <point x="44" y="215" type="line"/>
      <point x="44" y="182" type="line"/>
      <point x="337" y="182" type="line"/>
      <point x="337" y="0" type="line"/>
      <point x="374" y="0" type="line"/>
      <point x="374" y="182" type="line"/>
    </contour>
  </outline>
</glyph>
<glyph name="macron.uc" format="1">
  <advance width="341"/>
  <outline>
    <contour>
      <point x="291" y="571" type="line"/>
      <point x="291" y="617" type="line"/>
      <point x="50" y="617" type="line"/>
      <point x="50" y="571" type="line"/>
    </contour>
    <contour>
      <point x="171" y="530" type="move" name="_top"/>
    </contour>
  </outline>
</glyph>
<glyph name="nine.osf" format="1">
  <advance width="510"/>
  <outline>
    <contour>
      <point x="459" y="191" type="curve"/>
      <point x="459" y="427"/>
      <point x="400" y="504"/>
      <point x="248" y="504" type="curve"/>
      <point x="116" y="504"/>
      <point x="36" y="426"/>
      <point x="36" y="288" type="curve"/>
      <point x="36" y="148"/>
      <point x="98" y="91"/>
      <point x="215" y="91" type="curve"/>
      <point x="297" y="91"/>
      <point x="357" y="118"/>
      <point x="406" y="154" type="curve"/>
      <point x="406" y="206" type="line"/>
      <point x="359" y="172"/>
      <point x="303" y="147"/>
      <point x="239" y="147" type="curve"/>
      <point x="141" y="147"/>
      <point x="99" y="183"/>
      <point x="99" y="291" type="curve"/>
      <point x="99" y="390"/>
      <point x="150" y="445"/>
      <point x="248" y="445" type="curve"/>
      <point x="359" y="445"/>
      <point x="394" y="386"/>
      <point x="394" y="195" type="curve"/>
      <point x="394" y="-17"/>
      <point x="351" y="-99"/>
      <point x="190" y="-99" type="curve"/>
      <point x="151" y="-99"/>
      <point x="122" y="-96"/>
      <point x="103" y="-93" type="curve"/>
      <point x="103" y="-152" type="line"/>
      <point x="119" y="-156"/>
      <point x="157" y="-159"/>
      <point x="190" y="-159" type="curve"/>
      <point x="390" y="-159"/>
      <point x="459" y="-50"/>
    </contour>
  </outline>
</glyph>
<glyph name="nine.tf" format="1">
  <advance width="500"/>
  <outline>
    <contour>
      <point x="450" y="334" type="curve"/>
      <point x="450" y="563"/>
      <point x="392" y="638"/>
      <point x="243" y="638" type="curve"/>
      <point x="113" y="638"/>
      <point x="36" y="562"/>
      <point x="36" y="428" type="curve"/>
      <point x="36" y="291"/>
      <point x="95" y="235"/>
      <point x="210" y="235" type="curve"/>
      <point x="288" y="235"/>
      <point x="346" y="260"/>
      <point x="396" y="297" type="curve"/>
      <point x="396" y="349" type="line"/>
      <point x="351" y="315"/>
      <point x="296" y="291"/>
      <point x="233" y="291" type="curve"/>
      <point x="138" y="291"/>
      <point x="99" y="326"/>
      <point x="99" y="431" type="curve"/>
      <point x="99" y="525"/>
      <point x="148" y="579"/>
      <point x="243" y="579" type="curve"/>
      <point x="351" y="579"/>
      <point x="386" y="521"/>
      <point x="386" y="338" type="curve"/>
      <point x="386" y="132"/>
      <point x="343" y="53"/>
      <point x="185" y="53" type="curve"/>
      <point x="149" y="53"/>
      <point x="119" y="56"/>
      <point x="100" y="59" type="curve"/>
      <point x="100" y="0" type="line"/>
      <point x="115" y="-4"/>
      <point x="154" y="-7"/>
      <point x="185" y="-7" type="curve"/>
      <point x="381" y="-7"/>
      <point x="450" y="99"/>
    </contour>
  </outline>
</glyph>
<glyph name="ring.uc" format="1">
  <advance width="325"/>
  <outline>
    <contour>
      <point x="161" y="596" type="curve" smooth="yes"/>
      <point x="117" y="596"/>
      <point x="93" y="613"/>
      <point x="93" y="640" type="curve" smooth="yes"/>
      <point x="93" y="665"/>
      <point x="117" y="682"/>
      <point x="161" y="682" type="curve" smooth="yes"/>
      <point x="207" y="682"/>
      <point x="232" y="665"/>
      <point x="232" y="640" type="curve" smooth="yes"/>
      <point x="232" y="613"/>
      <point x="207" y="596"/>
    </contour>
    <contour>
      <point x="161" y="560" type="curve" smooth="yes"/>
      <point x="230" y="560"/>
      <point x="272" y="593"/>
      <point x="272" y="640" type="curve" smooth="yes"/>
      <point x="272" y="686"/>
      <point x="230" y="717"/>
      <point x="161" y="717" type="curve" smooth="yes"/>
      <point x="94" y="717"/>
      <point x="52" y="686"/>
      <point x="52" y="640" type="curve" smooth="yes"/>
      <point x="52" y="593"/>
      <point x="92" y="560"/>
    </contour>
    <contour>
      <point x="161" y="530" type="move" name="_top"/>
    </contour>
  </outline>
</glyph>
<glyph name="seven.osf" format="1">
  <advance width="438"/>
  <outline>
    <contour>
      <point x="411" y="460" type="line"/>
      <point x="411" y="494" type="line"/>
      <point x="30" y="494" type="line"/>
      <point x="30" y="459" type="line"/>
      <point x="371" y="459" type="line"/>
      <point x="47" y="-152" type="line"/>
      <point x="88" y="-152" type="line"/>
    </contour>
  </outline>
</glyph>
<glyph name="seven.tf" format="1">
  <advance width="500"/>
  <outline>
    <contour>
      <point x="455" y="594" type="line"/>
      <point x="455" y="628" type="line"/>
      <point x="51" y="628" type="line"/>
      <point x="51" y="593" type="line"/>
      <point x="415" y="593" type="line"/>
      <point x="69" y="0" type="line"/>
      <point x="109" y="0" type="line"/>
    </contour>
  </outline>
</glyph>
<glyph name="six.tf" format="1">
  <advance width="500"/>
  <outline>
    <contour>
      <point x="48" y="297" type="curve"/>
      <point x="48" y="72"/>
      <point x="110" y="-7"/>
      <point x="259" y="-7" type="curve"/>
      <point x="390" y="-7"/>
      <point x="468" y="72"/>
      <point x="468" y="209" type="curve"/>
      <point x="468" y="344"/>
      <point x="410" y="399"/>
      <point x="299" y="399" type="curve"/>
      <point x="213" y="399"/>
      <point x="155" y="372"/>
      <point x="101" y="339" type="curve"/>
      <point x="101" y="286" type="line"/>
      <point x="153" y="320"/>
      <point x="213" y="344"/>
      <point x="275" y="344" type="curve"/>
      <point x="366" y="344"/>
      <point x="405" y="310"/>
      <point x="405" y="207" type="curve"/>
      <point x="405" y="109"/>
      <point x="356" y="53"/>
      <point x="258" y="53" type="curve"/>
      <point x="152" y="53"/>
      <point x="112" y="115"/>
      <point x="112" y="292" type="curve"/>
      <point x="112" y="499"/>
      <point x="155" y="579"/>
      <point x="312" y="579" type="curve"/>
      <point x="349" y="579"/>
      <point x="377" y="576"/>
      <point x="396" y="573" type="curve"/>
      <point x="396" y="631" type="line"/>
      <point x="381" y="635"/>
      <point x="342" y="638"/>
      <point x="312" y="638" type="curve"/>
      <point x="117" y="638"/>
      <point x="48" y="532"/>
    </contour>
  </outline>
</glyph>
<glyph name="three.tf" format="1">
  <advance width="500"/>
  <outline>
    <contour>
      <point x="289" y="330" type="line"/>
      <point x="342" y="343"/>
      <point x="408" y="387"/>
      <point x="408" y="484" type="curve"/>
      <point x="408" y="584"/>
      <point x="352" y="638"/>
      <point x="235" y="638" type="curve"/>
      <point x="157" y="638"/>
      <point x="107" y="628"/>
      <point x="67" y="616" type="curve"/>
      <point x="67" y="583" type="line"/>
      <point x="103" y="592"/>
      <point x="160" y="603"/>
      <point x="229" y="603" type="curve"/>
      <point x="329" y="603"/>
      <point x="372" y="561"/>
      <point x="372" y="479" type="curve"/>
      <point x="372" y="378"/>
      <point x="290" y="340"/>
      <point x="211" y="340" type="curve"/>
      <point x="129" y="340" type="line"/>
      <point x="129" y="307" type="line"/>
      <point x="229" y="307" type="line"/>
      <point x="356" y="307"/>
      <point x="403" y="259"/>
      <point x="403" y="172" type="curve"/>
      <point x="403" y="81"/>
      <point x="342" y="29"/>
      <point x="216" y="29" type="curve"/>
      <point x="123" y="29"/>
      <point x="82" y="36"/>
      <point x="42" y="47" type="curve"/>
      <point x="42" y="12" type="line"/>
      <point x="79" y="1"/>
      <point x="124" y="-7"/>
      <point x="220" y="-7" type="curve"/>
      <point x="366" y="-7"/>
      <point x="440" y="58"/>
      <point x="440" y="171" type="curve"/>
      <point x="440" y="275"/>
      <point x="378" y="323"/>
      <point x="289" y="328" type="curve"/>
    </contour>
  </outline>
</glyph>
<glyph name="tilde.uc" format="1">
  <advance width="386"/>
  <outline>
    <contour>
      <point x="336" y="661" type="curve"/>
      <point x="307" y="661" type="line"/>
      <point x="307" y="633"/>
      <point x="297" y="594"/>
      <point x="258" y="594" type="curve"/>
      <point x="215" y="594"/>
      <point x="190" y="665"/>
      <point x="130" y="665" type="curve"/>
      <point x="69" y="665"/>
      <point x="50" y="614"/>
      <point x="50" y="569" type="curve"/>
      <point x="79" y="569" type="line"/>
      <point x="79" y="595"/>
      <point x="87" y="636"/>
      <point x="132" y="636" type="curve"/>
      <point x="176" y="636"/>
      <point x="200" y="565"/>
      <point x="260" y="565" type="curve"/>
      <point x="319" y="565"/>
      <point x="336" y="616"/>
    </contour>
    <contour>
      <point x="194" y="530" type="move" name="_top"/>
    </contour>
  </outline>
</glyph>
<glyph name="zero.osf" format="1">
  <advance width="566"/>
  <outline>
    <contour>
      <point x="283" y="471" type="curve"/>
      <point x="432" y="471"/>
      <point x="471" y="406"/>
      <point x="471" y="249" type="curve"/>
      <point x="471" y="100"/>
      <point x="425" y="28"/>
      <point x="283" y="28" type="curve"/>
      <point x="133" y="28"/>
      <point x="95" y="92"/>
      <point x="95" y="249" type="curve"/>
      <point x="95" y="398"/>
      <point x="140" y="471"/>
    </contour>
    <contour>
      <point x="283" y="-7" type="curve"/>
      <point x="447" y="-7"/>
      <point x="506" y="76"/>
      <point x="506" y="249" type="curve"/>
      <point x="506" y="431"/>
      <point x="454" y="504"/>
      <point x="283" y="504" type="curve"/>
      <point x="119" y="504"/>
      <point x="60" y="421"/>
      <point x="60" y="249" type="curve"/>
      <point x="60" y="67"/>
      <point x="113" y="-7"/>
    </contour>
  </outline>
</glyph>
